<?xml version="1.0" encoding="UTF-8"?>
<svg version="1.1" xmlns="http://www.w3.org/2000/svg" width="256" height="256">
<path d="M0 0 C1.06798828 0.53818359 2.13597656 1.07636719 3.23632812 1.63085938 C4.34041016 2.19740234 5.44449219 2.76394531 6.58203125 3.34765625 C7.63583984 3.87939453 8.68964844 4.41113281 9.77539062 4.95898438 C16.35014827 8.29128876 22.87643264 11.71101611 29.39453125 15.15234375 C39.95224332 20.72533818 50.57413061 26.16981667 61.20703125 31.59765625 C62.1770105 32.09340149 63.14698975 32.58914673 64.1463623 33.09991455 C78.03386794 40.19701653 91.94734229 47.23904872 105.92504883 54.15698242 C107.04419678 54.71232666 108.16334473 55.2676709 109.31640625 55.83984375 C110.2815918 56.31663574 111.24677734 56.79342773 112.24121094 57.28466797 C114.39453125 58.41015625 114.39453125 58.41015625 115.39453125 59.41015625 C115.49069932 61.09307321 115.51640816 62.78005186 115.51478577 64.4657135 C115.51684776 66.10853554 115.51684776 66.10853554 115.51895142 67.7845459 C115.51535614 68.99654663 115.51176086 70.20854736 115.50805664 71.45727539 C115.50820267 72.72538559 115.50834869 73.99349579 115.50849915 75.30003357 C115.5087871 78.78748047 115.5028907 82.27489326 115.49592519 85.7623322 C115.48969132 89.40319348 115.48908783 93.04405547 115.48789978 96.68492126 C115.48478656 103.58392597 115.4765733 110.4829149 115.46655029 117.38191265 C115.45538886 125.2342631 115.44987863 133.08661428 115.44485486 140.93897069 C115.43439068 157.09604178 115.41679142 173.25309701 115.39453125 189.41015625 C112.36246173 191.01003086 109.32972602 192.60863867 106.296875 194.20703125 C105.44460327 194.65675293 104.59233154 195.10647461 103.7142334 195.56982422 C97.31678518 198.94030741 90.87956527 202.21117834 84.39453125 205.41015625 C77.18063701 208.99178338 70.00582695 212.62884979 62.89453125 216.41015625 C54.76928283 220.73061424 46.55113405 224.84818096 38.31005859 228.94262695 C32.00378036 232.08364444 25.74348568 235.29675029 19.51953125 238.59765625 C17.99753776 239.40000887 16.47540388 240.20209524 14.953125 241.00390625 C12.60825133 242.23906604 10.26631426 243.47885027 7.93017578 244.73046875 C5.48857549 246.03494412 3.0367252 247.31802827 0.58203125 248.59765625 C-0.15321777 248.99686279 -0.8884668 249.39606934 -1.64599609 249.80737305 C-2.34031738 250.16484619 -3.03463867 250.52231934 -3.75 250.890625 C-4.35175049 251.20926514 -4.95350098 251.52790527 -5.57348633 251.85620117 C-11.11752007 253.36760482 -16.13545591 250.42265152 -20.9609375 247.9453125 C-22.0029557 247.42210922 -22.0029557 247.42210922 -23.06602478 246.88833618 C-25.31242323 245.75766435 -27.55272036 244.61545804 -29.79296875 243.47265625 C-31.34657247 242.68737255 -32.90044751 241.90262541 -34.45458984 241.1184082 C-42.97530153 236.80984917 -51.46210175 232.44007582 -59.88745117 227.94750977 C-67.09104385 224.11605369 -74.39906258 220.50010872 -81.70556641 216.86987305 C-88.63878296 213.4165574 -95.50622628 209.85830201 -102.34326172 206.21899414 C-110.14036803 202.08724404 -118.04080309 198.1654716 -125.95117188 194.25585938 C-126.93279297 193.76923828 -127.91441406 193.28261719 -128.92578125 192.78125 C-129.80508301 192.3473999 -130.68438477 191.9135498 -131.59033203 191.46655273 C-133.60546875 190.41015625 -133.60546875 190.41015625 -134.60546875 189.41015625 C-134.70163682 187.72723929 -134.72734566 186.04026064 -134.72572327 184.354599 C-134.72709793 183.25938431 -134.7284726 182.16416962 -134.72988892 181.0357666 C-134.72629364 179.82376587 -134.72269836 178.61176514 -134.71899414 177.36303711 C-134.71914017 176.09492691 -134.71928619 174.82681671 -134.71943665 173.52027893 C-134.7197246 170.03283203 -134.7138282 166.54541924 -134.70686269 163.0579803 C-134.70062882 159.41711902 -134.70002533 155.77625703 -134.69883728 152.13539124 C-134.69572406 145.23638653 -134.6875108 138.3373976 -134.67748779 131.43839985 C-134.66632636 123.5860494 -134.66081613 115.73369822 -134.65579236 107.88134181 C-134.64532818 91.72427072 -134.62772892 75.56721549 -134.60546875 59.41015625 C-131.59171362 57.81923452 -128.57717343 56.22980585 -125.5625 54.640625 C-124.71755981 54.19456909 -123.87261963 53.74851318 -123.0020752 53.28894043 C-115.92025521 49.55725418 -108.78119177 45.95817593 -101.60546875 42.41015625 C-93.72526371 38.49730054 -85.87058115 34.54787156 -78.10546875 30.41015625 C-69.7408831 25.95300582 -61.26745571 21.72242564 -52.78131104 17.50320435 C-45.13607051 13.70015491 -37.52661431 9.84384511 -29.98046875 5.84765625 C-29.21774658 5.44571045 -28.45502441 5.04376465 -27.66918945 4.62963867 C-24.57591611 2.9967983 -21.49618348 1.34951707 -18.4375 -0.34765625 C-17.56480469 -0.81945312 -16.69210938 -1.29125 -15.79296875 -1.77734375 C-15.10589844 -2.16277344 -14.41882813 -2.54820313 -13.7109375 -2.9453125 C-8.85904819 -4.43058474 -4.30462532 -2.18581241 0 0 Z " fill="#926E43" transform="translate(137.60546875,3.58984375)"/>
<path d="M0 0 C1.06798828 0.53818359 2.13597656 1.07636719 3.23632812 1.63085938 C4.34041016 2.19740234 5.44449219 2.76394531 6.58203125 3.34765625 C7.63583984 3.87939453 8.68964844 4.41113281 9.77539062 4.95898438 C16.35014827 8.29128876 22.87643264 11.71101611 29.39453125 15.15234375 C39.0072855 20.2265327 48.67127683 25.19730153 58.35217285 30.14004517 C61.27551321 31.63262123 64.19780769 33.12723299 67.12011719 34.62182617 C76.04300683 39.18079942 84.97434584 43.71991456 93.953125 48.16796875 C95.02340691 48.69886864 95.02340691 48.69886864 96.11531067 49.24049377 C99.38092446 50.85898127 102.64985116 52.47008775 105.92504883 54.0690918 C107.04419678 54.62121338 108.16334473 55.17333496 109.31640625 55.7421875 C110.2815918 56.21374268 111.24677734 56.68529785 112.24121094 57.17114258 C114.39453125 58.41015625 114.39453125 58.41015625 115.39453125 60.41015625 C114.68135742 60.77665283 113.96818359 61.14314941 113.23339844 61.52075195 C112.22954102 62.03726318 111.22568359 62.55377441 110.19140625 63.0859375 C109.07427246 63.65981201 107.95713867 64.23368652 106.80615234 64.82495117 C104.34567464 66.09422944 101.89716357 67.38351227 99.45556641 68.6887207 C93.77859516 71.71059595 88.21643359 74.5723485 82.18359375 76.83984375 C74.39305218 79.84273724 74.39305218 79.84273724 68.39453125 85.41015625 C65.79347997 94.13697108 66.51720061 103.44979997 67.39453125 112.41015625 C63.42979205 111.80314101 60.10413156 110.91404827 56.39453125 109.41015625 C55.40453125 109.41015625 54.41453125 109.41015625 53.39453125 109.41015625 C51.48718495 111.3248813 51.48718495 111.3248813 49.64453125 113.84765625 C48.94714844 114.75128906 48.24976563 115.65492187 47.53125 116.5859375 C46.82613281 117.51792969 46.12101563 118.44992188 45.39453125 119.41015625 C44.08477918 121.12059729 42.7725036 122.82911067 41.45703125 124.53515625 C40.89113281 125.28023437 40.32523438 126.0253125 39.7421875 126.79296875 C39.29746094 127.32664063 38.85273438 127.8603125 38.39453125 128.41015625 C38.06453125 128.41015625 37.73453125 128.41015625 37.39453125 128.41015625 C37.39453125 119.17015625 37.39453125 109.93015625 37.39453125 100.41015625 C32.41359375 103.00890625 32.41359375 103.00890625 27.33203125 105.66015625 C26.21957031 106.23685059 25.10710937 106.81354492 23.9609375 107.40771484 C18.59064697 110.19359763 13.25279982 113.02389071 7.95703125 115.94921875 C6.929729 116.50834961 5.90242676 117.06748047 4.84399414 117.64355469 C2.86556741 118.72185098 0.89559839 119.815841 -1.06469727 120.92675781 C-1.96631592 121.41370117 -2.86793457 121.90064453 -3.796875 122.40234375 C-4.58263916 122.8391748 -5.36840332 123.27600586 -6.17797852 123.72607422 C-11.03690005 125.0953489 -15.48032988 122.09328838 -19.7265625 119.85546875 C-20.72381348 119.33364014 -21.72106445 118.81181152 -22.74853516 118.27416992 C-23.83569824 117.70029541 -24.92286133 117.1264209 -26.04296875 116.53515625 C-28.47606147 115.26204983 -30.90962657 113.98988137 -33.34375 112.71875 C-33.99482727 112.37824112 -34.64590454 112.03773224 -35.31671143 111.68690491 C-42.93597229 107.70603265 -50.58822313 103.78972624 -58.24032593 99.87246704 C-62.41482696 97.73536112 -66.58824975 95.5961517 -70.76171875 93.45703125 C-71.58665329 93.03424393 -72.41158783 92.6114566 -73.26152039 92.17585754 C-93.75364398 81.67183698 -114.23141757 71.14188059 -134.60546875 60.41015625 C-132.44095793 58.04174109 -130.39839736 56.62490886 -127.52734375 55.20874023 C-126.7079834 54.8007872 -125.88862305 54.39283417 -125.04443359 53.97251892 C-123.713396 53.32096581 -123.713396 53.32096581 -122.35546875 52.65625 C-121.42814941 52.19589859 -120.50083008 51.73554718 -119.54541016 51.26124573 C-116.5682141 49.78434552 -113.58710666 48.3155655 -110.60546875 46.84765625 C-106.72886604 44.932914 -102.85406682 43.01456305 -98.98046875 41.09375 C-98.02180908 40.61876068 -97.06314941 40.14377136 -96.07543945 39.65438843 C-89.05752204 36.16454056 -82.1099067 32.5554056 -75.1862793 28.88267517 C-68.38154901 25.27595899 -61.50937692 21.82372723 -54.60546875 18.41015625 C-46.34985287 14.31118346 -38.12639714 10.16147024 -29.98046875 5.84765625 C-29.21774658 5.44571045 -28.45502441 5.04376465 -27.66918945 4.62963867 C-24.57591611 2.9967983 -21.49618348 1.34951707 -18.4375 -0.34765625 C-17.56480469 -0.81945312 -16.69210938 -1.29125 -15.79296875 -1.77734375 C-15.10589844 -2.16277344 -14.41882813 -2.54820313 -13.7109375 -2.9453125 C-8.85904819 -4.43058474 -4.30462532 -2.18581241 0 0 Z " fill="#D9AC80" transform="translate(137.60546875,3.58984375)"/>
<path d="M0 0 C0 42.57 0 85.14 0 129 C-21.43918919 140.28378378 -21.43918919 140.28378378 -31 145 C-38.21389424 148.58162713 -45.3887043 152.21869354 -52.5 156 C-60.62524842 160.32045799 -68.8433972 164.43802471 -77.08447266 168.5324707 C-83.39070296 171.67346432 -89.65190547 174.88502646 -95.875 178.1875 C-102.2401574 181.56204592 -108.62894398 184.88246201 -115.0625 188.125 C-115.83126465 188.51582764 -116.6000293 188.90665527 -117.39208984 189.30932617 C-122.76364656 192 -122.76364656 192 -125 192 C-125 149.76 -125 107.52 -125 64 C-114.39852617 58.11029232 -103.91318547 52.30108029 -93.0625 46.9375 C-91.92876953 46.37095703 -90.79503906 45.80441406 -89.62695312 45.22070312 C-81.42474084 41.14158028 -81.42474084 41.14158028 -78 40 C-77.67 48.91 -77.34 57.82 -77 67 C-70.95871954 59.46801203 -70.95871954 59.46801203 -65 51.875 C-64.13375 50.75738281 -64.13375 50.75738281 -63.25 49.6171875 C-62.8375 49.08351562 -62.425 48.54984375 -62 48 C-58.38413607 48.45198299 -55.16774122 49.23805013 -51.78125 50.54296875 C-51.07033203 50.81520264 -50.35941406 51.08743652 -49.62695312 51.36791992 C-49.09005859 51.57650635 -48.55316406 51.78509277 -48 52 C-48.04189453 51.20827393 -48.08378906 50.41654785 -48.12695312 49.60083008 C-48.2934913 46.0052392 -48.3973583 42.41045808 -48.5 38.8125 C-48.56703125 37.56662109 -48.6340625 36.32074219 -48.703125 35.03710938 C-48.89373206 26.150055 -48.89373206 26.150055 -46.65161133 23.26489258 C-44.5082829 21.88152548 -42.36212033 20.96587736 -40 20 C-37.89334634 18.89886453 -35.79359641 17.78446545 -33.69921875 16.66015625 C-31.36374083 15.45751026 -29.02645629 14.25836703 -26.6875 13.0625 C-24.3574747 11.86705067 -22.02804061 10.67044827 -19.69921875 9.47265625 C-18.57821777 8.89660645 -17.4572168 8.32055664 -16.30224609 7.72705078 C-12.19894089 5.58105189 -8.15336111 3.33920591 -4.12036133 1.06420898 C-2 0 -2 0 0 0 Z " fill="#A67E4F" transform="translate(253,64)"/>
<path d="M0 0 C0.98097656 0.49306641 1.96195313 0.98613281 2.97265625 1.49414062 C3.98972656 2.01298828 5.00679687 2.53183594 6.0546875 3.06640625 C7.01761719 3.55044922 7.98054688 4.03449219 8.97265625 4.53320312 C15.34664567 7.75309584 21.66954028 11.0645103 27.984375 14.3984375 C37.06733782 19.19344394 46.19820714 23.89046829 55.34616089 28.56005859 C59.80373787 30.83557801 64.25942185 33.11479571 68.71484375 35.39453125 C70.0310244 36.0679657 70.0310244 36.0679657 71.37379456 36.75500488 C80.11134671 41.22869386 88.82754914 45.74289478 97.53320312 50.27832031 C103.6363905 53.45496278 109.76502099 56.57319219 115.9296875 59.62890625 C112.72826477 63.2618011 109.15551931 65.27225906 104.85546875 67.34375 C104.17220016 67.68136856 103.48893158 68.01898712 102.78495789 68.36683655 C100.60770848 69.44103185 98.42529629 70.5041772 96.2421875 71.56640625 C94.08299264 72.62461714 91.9249741 73.68515244 89.76803589 74.74795532 C88.37701195 75.43237993 86.98438592 76.11355878 85.59011841 76.79135132 C81.18866449 78.94549939 76.98748082 81.28185055 72.91088867 84.01391602 C69.12734247 85.18837724 65.80541403 83.04072576 62.38891602 81.43408203 C61.53740967 80.98532715 60.68590332 80.53657227 59.80859375 80.07421875 C58.81134277 79.55239014 57.8140918 79.03056152 56.78662109 78.49291992 C55.69945801 77.91904541 54.61229492 77.3451709 53.4921875 76.75390625 C51.05909478 75.48079983 48.62552968 74.20863137 46.19140625 72.9375 C45.54032898 72.59699112 44.88925171 72.25648224 44.21844482 71.90565491 C36.59918396 67.92478265 28.94693312 64.00847624 21.29483032 60.09121704 C17.12032929 57.95411112 12.9469065 55.8149017 8.7734375 53.67578125 C7.94850296 53.25299393 7.12356842 52.8302066 6.27363586 52.39460754 C-14.21848773 41.89058698 -34.69626132 31.36063059 -55.0703125 20.62890625 C-52.89716101 18.25546897 -50.81437372 16.80364319 -47.95361328 15.34472656 C-47.12910675 14.92128967 -46.30460022 14.49785278 -45.45510864 14.06158447 C-44.56757904 13.61458191 -43.68004944 13.16757935 -42.765625 12.70703125 C-41.84949432 12.24278748 -40.93336365 11.7785437 -39.98947144 11.30023193 C-38.05271894 10.32207827 -36.11428792 9.34724203 -34.17431641 8.37548828 C-31.20636234 6.88445743 -28.24973348 5.37244731 -25.29296875 3.859375 C-23.40951329 2.91144965 -21.52541919 1.96479196 -19.640625 1.01953125 C-18.75714386 0.56443176 -17.87366272 0.10933228 -16.96340942 -0.35955811 C-16.13259857 -0.77038635 -15.30178772 -1.1812146 -14.44580078 -1.60449219 C-13.71982697 -1.97072693 -12.99385315 -2.33696167 -12.24588013 -2.71429443 C-7.76895248 -4.06586953 -3.97865024 -2.01098475 0 0 Z " fill="#D8AB7F" transform="translate(58.0703125,43.37109375)"/>
<path d="M0 0 C1.53889893 0.77645874 1.53889893 0.77645874 3.10888672 1.56860352 C4.85105469 2.44355469 4.85105469 2.44355469 6.62841797 3.33618164 C7.84847342 3.95661773 9.06852551 4.57706043 10.28857422 5.19750977 C11.44228516 5.77694336 12.59599609 6.35637695 13.78466797 6.95336914 C21.4955644 10.83487532 29.13755989 14.84236481 36.77081299 18.8739624 C44.96762852 23.19707904 53.21386272 27.42137643 61.46743774 31.63485718 C65.91043877 33.90316026 70.35151494 36.17522467 74.79248047 38.44750977 C75.6731871 38.8980925 76.55389374 39.34867523 77.46128845 39.81291199 C86.85009783 44.61896429 96.21930503 49.46263726 105.58300781 54.31738281 C107.21036865 55.16103394 107.21036865 55.16103394 108.87060547 56.02172852 C110.27016479 56.74815552 110.27016479 56.74815552 111.69799805 57.48925781 C113.84489103 58.59576123 116.00329659 59.67987095 118.16357422 60.76000977 C118.16357422 70.33000977 118.16357422 79.90000977 118.16357422 89.76000977 C113.77953203 89.02933607 111.08050158 88.34795329 107.16357422 86.76000977 C106.17357422 86.76000977 105.18357422 86.76000977 104.16357422 86.76000977 C102.25622792 88.67473482 102.25622792 88.67473482 100.41357422 91.19750977 C99.71619141 92.10114258 99.01880859 93.00477539 98.30029297 93.93579102 C97.59517578 94.8677832 96.89005859 95.79977539 96.16357422 96.76000977 C94.85382215 98.4704508 93.54154657 100.17896418 92.22607422 101.88500977 C91.66017578 102.63008789 91.09427734 103.37516602 90.51123047 104.14282227 C90.06650391 104.67649414 89.62177734 105.21016602 89.16357422 105.76000977 C88.83357422 105.76000977 88.50357422 105.76000977 88.16357422 105.76000977 C87.83357422 96.52000977 87.50357422 87.28000977 87.16357422 77.76000977 C85.07400391 76.72102539 82.98443359 75.68204102 80.83154297 74.61157227 C78.73257283 73.56602357 76.63397163 72.51973775 74.53540039 71.47338867 C73.11358051 70.76494193 71.69139843 70.05722151 70.26879883 69.3503418 C61.24199253 64.86421481 52.28106178 60.27047566 43.37037659 55.55781555 C35.51957135 51.40871241 27.6217106 47.35431166 19.71502686 43.31295776 C15.50374249 41.16007038 11.29469616 39.00281467 7.08544922 36.84594727 C6.24714569 36.41646286 5.40884216 35.98697845 4.5451355 35.54447937 C-2.83842454 31.76089777 -10.21794176 27.96955373 -17.58990479 24.16342163 C-18.82441395 23.52627834 -20.05923009 22.88972943 -21.29437256 22.2538147 C-22.98891952 21.38121027 -24.68223409 20.50621386 -26.37548828 19.63110352 C-27.31602051 19.14569092 -28.25655273 18.66027832 -29.22558594 18.16015625 C-31.81529011 16.77134445 -34.33001381 15.29328079 -36.83642578 13.76000977 C-33.09632257 9.47872374 -27.77457242 7.43112722 -22.77636719 4.92456055 C-20.96709832 4.01286816 -19.16958854 3.08039391 -17.37158203 2.14672852 C-16.22818359 1.57051758 -15.08478516 0.99430664 -13.90673828 0.40063477 C-12.86275879 -0.13013672 -11.8187793 -0.6609082 -10.74316406 -1.20776367 C-6.4038631 -2.74871483 -4.11596105 -1.79936014 0 0 Z " fill="#F1D2B9" transform="translate(86.83642578125,26.239990234375)"/>
<path d="M0 0 C0 8.91 0 17.82 0 27 C-4.38404218 26.2693263 -7.08307263 25.58794353 -11 24 C-11.99 24 -12.98 24 -14 24 C-15.9073463 25.91472505 -15.9073463 25.91472505 -17.75 28.4375 C-18.44738281 29.34113281 -19.14476562 30.24476562 -19.86328125 31.17578125 C-20.56839844 32.10777344 -21.27351562 33.03976563 -22 34 C-23.30975207 35.71044104 -24.62202765 37.41895442 -25.9375 39.125 C-26.78634766 40.24261719 -26.78634766 40.24261719 -27.65234375 41.3828125 C-28.09707031 41.91648438 -28.54179687 42.45015625 -29 43 C-29.33 43 -29.66 43 -30 43 C-30 33.76 -30 24.52 -30 15 C-26.49375 13.081875 -22.9875 11.16375 -19.375 9.1875 C-18.28106934 8.58832764 -17.18713867 7.98915527 -16.06005859 7.37182617 C-2.56423174 0 -2.56423174 0 0 0 Z " fill="#D6B9A3" transform="translate(205,89)"/>
</svg>
