<?xml version="1.0" encoding="UTF-8"?>
<svg version="1.1" xmlns="http://www.w3.org/2000/svg" width="256" height="256">
<path d="M0 0 C1.69593014 0.84254509 3.36573296 1.73849711 5.015625 2.66796875 C6.50243774 3.5021936 6.50243774 3.5021936 8.01928711 4.35327148 C9.08542236 4.95856689 10.15155762 5.5638623 11.25 6.1875 C12.91977905 7.12928101 12.91977905 7.12928101 14.62329102 8.09008789 C24.10260671 13.45302396 33.51428458 18.9299443 42.91015625 24.4375 C49.21570419 28.1321331 55.54294436 31.78852681 61.875 35.4375 C62.95515381 36.06003662 64.03530762 36.68257324 65.14819336 37.32397461 C67.33796334 38.58576826 69.52782355 39.84740534 71.71777344 41.10888672 C77.14659942 44.23680148 82.57319281 47.36858448 88 50.5 C90.16665583 51.75001879 92.3333225 53.00001878 94.5 54.25 C98.83333333 56.75 103.16666667 59.25 107.5 61.75 C108.5732251 62.36915283 109.6464502 62.98830566 110.75219727 63.6262207 C112.91159395 64.8720577 115.07093669 66.11798818 117.23022461 67.36401367 C127.21779226 73.12720172 127.21779226 73.12720172 137.21337891 78.87646484 C139.4246902 80.15476332 141.62900416 81.4452531 143.82568359 82.74853516 C148.60262757 85.56997057 153.26227879 88.20206165 158.41015625 90.28515625 C167.35162231 94.1016683 167.35162231 94.1016683 170 98 C172.31080856 105.64240541 172.83438309 115.45086261 170 123 C167.30551463 125.71710574 164.38133644 127.27455027 161 129 C159.64805527 129.97469134 158.30849184 130.96770795 157 132 C157.85464844 132.49371094 158.70929688 132.98742187 159.58984375 133.49609375 C160.69457031 134.13675781 161.79929688 134.77742187 162.9375 135.4375 C164.03964844 136.07558594 165.14179688 136.71367187 166.27734375 137.37109375 C169 139 169 139 170 140 C171.83126961 148.09828118 172.72169826 157.04731796 170 165 C164.79392406 171.20145147 156.72618517 174.14681432 149.49023438 177.37548828 C143.73112222 180.05603754 138.33626646 183.32889857 132.875 186.5625 C130.71463768 187.80529257 128.55318406 189.04619012 126.390625 190.28515625 C122.09809564 192.76337828 117.84284374 195.29332081 113.609375 197.87109375 C112.6002002 198.48202881 111.59102539 199.09296387 110.55126953 199.72241211 C108.64470903 200.88056888 106.74427171 202.04888549 104.85107422 203.22875977 C103.58287842 203.99724243 103.58287842 203.99724243 102.2890625 204.78125 C101.55381348 205.23564453 100.81856445 205.69003906 100.06103516 206.15820312 C97.47566714 207.21415538 96.57736537 207.01830512 94 206 C92.22186917 205.11067193 90.47016314 204.16774574 88.73828125 203.19140625 C87.19732788 202.3262439 87.19732788 202.3262439 85.62524414 201.44360352 C83.98543579 200.51245728 83.98543579 200.51245728 82.3125 199.5625 C81.18126709 198.9243335 80.05003418 198.28616699 78.88452148 197.62866211 C72.07991618 193.77925501 65.30914603 189.8776713 58.58496094 185.88964844 C52.27303706 182.14691469 45.92067937 178.47602017 39.5625 174.8125 C37.90166382 173.85549194 37.90166382 173.85549194 36.20727539 172.87915039 C33.93662932 171.57110523 31.66587642 170.26324552 29.39501953 168.95556641 C23.9283002 165.80667946 18.46425113 162.65316736 13 159.5 C10.83334689 158.2499765 8.66668021 156.99997653 6.5 155.75 C0 152 0 152 -6.5 148.25 C-7.57266113 147.63116943 -8.64532227 147.01233887 -9.75048828 146.37475586 C-11.91557071 145.12564482 -14.08060982 143.87645871 -16.24560547 142.62719727 C-26.04798406 136.97037594 -26.04798406 136.97037594 -35.85791016 131.32666016 C-38.02362521 130.07435832 -40.18230761 128.80980909 -42.33349609 127.53271484 C-47.77740107 124.31824232 -53.1927309 121.40164627 -58.96875 118.82421875 C-74.60998986 111.5171733 -74.60998986 111.5171733 -77.16748047 105.04589844 C-78.57055141 97.8841456 -78.91676546 89.81303217 -76 83 C-73.28593545 80.32882731 -70.35762789 78.73777944 -67 77 C-65.64867413 76.02445083 -64.3093564 75.03119523 -63 74 C-64.40765625 73.56880859 -64.40765625 73.56880859 -65.84375 73.12890625 C-73.50875939 69.8450721 -73.50875939 69.8450721 -76 66 C-77.76661646 57.87300388 -76.78166591 49.21442993 -76 41 C-75.00709961 40.42838135 -75.00709961 40.42838135 -73.99414062 39.84521484 C-61.89851114 32.87961404 -49.80919829 25.90354465 -37.75 18.875 C-36.77901367 18.31079346 -35.80802734 17.74658691 -34.80761719 17.1652832 C-29.75831491 14.22406043 -24.73823377 11.24300541 -19.75 8.19921875 C-18.74227539 7.58900879 -17.73455078 6.97879883 -16.69628906 6.35009766 C-14.77516268 5.18449545 -12.8600938 4.00883235 -10.95214844 2.82177734 C-10.0965332 2.30437988 -9.24091797 1.78698242 -8.359375 1.25390625 C-7.61139648 0.79314697 -6.86341797 0.3323877 -6.09277344 -0.14233398 C-3.49282881 -1.20785026 -2.58952621 -1.02465941 0 0 Z " fill="#96CF93" transform="translate(81,25)"/>
<path d="M0 0 C2.99169899 1.37761833 5.83035193 2.84567129 8.67504883 4.50610352 C9.74319824 5.12404785 10.81134766 5.74199219 11.91186523 6.37866211 C14.21209873 7.73343125 16.5072983 9.09433222 18.79760742 10.46557617 C19.96195334 11.15966329 21.12682836 11.85286362 22.29223633 12.54516602 C22.86578857 12.8861734 23.43934082 13.22718079 24.03027344 13.57852173 C27.43290183 15.56758141 30.83511658 17.24242691 34.48754883 18.71704102 C43.34079799 22.46791683 43.34079799 22.46791683 45.99926758 26.38110352 C48.31007614 34.02350892 48.83365067 43.83196612 45.99926758 51.38110352 C43.30478221 54.09820926 40.38060402 55.65565378 36.99926758 57.38110352 C35.64732284 58.35579486 34.30775942 59.34881147 32.99926758 60.38110352 C33.85391602 60.87481445 34.70856445 61.36852539 35.58911133 61.87719727 C36.69383789 62.51786133 37.79856445 63.15852539 38.93676758 63.81860352 C40.03891602 64.45668945 41.14106445 65.09477539 42.27661133 65.75219727 C44.99926758 67.38110352 44.99926758 67.38110352 45.99926758 68.38110352 C47.83053719 76.4793847 48.72096584 85.42842147 45.99926758 93.38110352 C40.79319164 99.58255498 32.72545275 102.52791783 25.48950195 105.7565918 C19.7303898 108.43714106 14.33553403 111.71000209 8.87426758 114.94360352 C6.71390525 116.18639608 4.55245164 117.42729364 2.38989258 118.66625977 C-1.90263678 121.14448179 -6.15788868 123.67442432 -10.39135742 126.25219727 C-11.90511963 127.16859985 -11.90511963 127.16859985 -13.44946289 128.10351562 C-15.35602339 129.26167239 -17.25646071 130.42998901 -19.1496582 131.60986328 C-20.417854 132.37834595 -20.417854 132.37834595 -21.71166992 133.16235352 C-22.44691895 133.61674805 -23.18216797 134.07114258 -23.93969727 134.53930664 C-26.52506528 135.59525889 -27.42336705 135.39940863 -30.00073242 134.38110352 C-31.77886326 133.49177545 -33.53056928 132.54884925 -35.26245117 131.57250977 C-36.29152588 130.99476807 -37.32060059 130.41702637 -38.38085938 129.82177734 C-39.47229248 129.20197998 -40.56372559 128.58218262 -41.68823242 127.94360352 C-42.80351318 127.31413818 -43.91879395 126.68467285 -45.06787109 126.03613281 C-51.67405297 122.29749294 -58.26222929 118.5281759 -64.81323242 114.69360352 C-65.49281006 114.29665283 -66.1723877 113.89970215 -66.87255859 113.49072266 C-68.593657 112.47374016 -70.29824609 111.42894577 -72.00073242 110.38110352 C-72.70987793 109.95361816 -73.41902344 109.52613281 -74.1496582 109.08569336 C-77.25506409 106.22603312 -76.80107325 103.02020292 -77.01293945 98.98657227 C-77.22302799 85.23087253 -77.22302799 85.23087253 -74.73950195 81.47241211 C-71.06845296 78.08977834 -66.06945746 75.38110352 -61.00073242 75.38110352 C-61.00073242 74.72110352 -61.00073242 74.06110352 -61.00073242 73.38110352 C-61.64010742 73.15422852 -62.27948242 72.92735352 -62.93823242 72.69360352 C-73.00073242 68.38110352 -73.00073242 68.38110352 -76.00073242 65.38110352 C-76.44811468 61.66442218 -76.51221051 57.9330154 -76.62573242 54.19360352 C-76.73208008 52.63029297 -76.73208008 52.63029297 -76.84057617 51.03540039 C-77.02150163 43.54603853 -77.02150163 43.54603853 -74.41210938 40.56811523 C-72.02452841 38.93851816 -69.59006349 37.66648261 -67.00073242 36.38110352 C-64.94307949 35.19053204 -62.88995896 33.99210502 -60.84057617 32.78735352 C-59.13641184 31.82005502 -57.4321878 30.85285351 -55.72558594 29.88986206 C-52.63481303 28.14547095 -49.55052467 26.38967413 -46.46557617 24.63500977 C-45.52794937 24.10219139 -45.52794937 24.10219139 -44.57138062 23.55860901 C-36.48836755 18.96040743 -28.46430138 14.26134354 -20.43823242 9.56469727 C-19.55651367 9.05535645 -18.67479492 8.54601562 -17.76635742 8.02124023 C-15.77316317 6.83918877 -13.80717883 5.61082352 -11.86010742 4.35424805 C-10.81338867 3.69408691 -9.76666992 3.03392578 -8.68823242 2.35375977 C-7.74334961 1.73895752 -6.7984668 1.12415527 -5.82495117 0.49072266 C-3.00073242 -0.61889648 -3.00073242 -0.61889648 0 0 Z " fill="#96CE93" transform="translate(205.000732421875,96.618896484375)"/>
<path d="M0 0 C0.94101563 0.54269531 1.88203125 1.08539063 2.8515625 1.64453125 C4.10932463 2.36727516 5.36713997 3.08992648 6.625 3.8125 C7.55119141 4.34713867 7.55119141 4.34713867 8.49609375 4.89257812 C12.27265506 7.05913172 16.08447772 9.0904299 20 11 C17.70001012 13.5138022 15.31694089 15.12931764 12.37109375 16.828125 C11.43168945 17.37291504 10.49228516 17.91770508 9.52441406 18.47900391 C7.9963916 19.35564697 7.9963916 19.35564697 6.4375 20.25 C5.3762793 20.86407715 4.31505859 21.4781543 3.22167969 22.11083984 C-0.18256246 24.07911982 -3.59074633 26.04041483 -7 28 C-9.22271723 29.27853983 -11.44537418 30.55718446 -13.66796875 31.8359375 C-14.75795166 32.46145508 -15.84793457 33.08697266 -16.97094727 33.73144531 C-19.15615015 34.99333449 -21.33508292 36.2661447 -23.50756836 37.54980469 C-28.61546841 40.55759657 -33.67786976 43.37114513 -39.0859375 45.8046875 C-46.85079656 49.30762677 -46.85079656 49.30762677 -53 55 C-55.27541247 62.53847086 -54.16715843 70.34862809 -53 78 C-48.38 80.64 -43.76 83.28 -39 86 C-39 86.66 -39 87.32 -39 88 C-41.10019014 89.47309111 -43.17767729 90.81309635 -45.375 92.125 C-45.97828125 92.49753906 -46.5815625 92.87007813 -47.203125 93.25390625 C-51.72965316 96 -51.72965316 96 -54 96 C-54 103.92 -54 111.84 -54 120 C-61.47479441 116.40452927 -68.63183958 112.5326288 -75.75390625 108.29614258 C-82.28325474 104.41228163 -88.85395338 100.60370804 -95.4375 96.8125 C-96.54222656 96.17586426 -97.64695312 95.53922852 -98.78515625 94.88330078 C-102.18977333 92.92162553 -105.59484279 90.96073749 -109 89 C-131.81847085 75.85833179 -131.81847085 75.85833179 -141.30078125 70.33203125 C-142.32220215 69.7380957 -143.34362305 69.14416016 -144.39599609 68.53222656 C-146.40488568 67.35507983 -148.40672758 66.16581241 -150.40087891 64.96386719 C-155.08457839 62.15915311 -159.67036377 59.63884712 -164.72265625 57.55859375 C-174.86299589 53.15844817 -174.86299589 53.15844817 -178 49 C-180.5326263 41.40738643 -180.93799186 31.52250495 -178 24 C-175.30072979 21.2902637 -172.41329979 19.6700265 -169 18 C-167.948125 17.319375 -166.89625 16.63875 -165.8125 15.9375 C-163 15 -163 15 -159.625 16.3125 C-158.75875 16.869375 -157.8925 17.42625 -157 18 C-159.52045099 20.6104671 -162.07655973 22.85655325 -165 25 C-164.2972998 25.38631592 -163.59459961 25.77263184 -162.87060547 26.1706543 C-148.06060517 34.32446116 -133.38212742 42.64230508 -118.86083984 51.30273438 C-113.46665452 54.50297131 -108.04474997 57.65581908 -102.625 60.8125 C-101.56514893 61.4300415 -100.50529785 62.04758301 -99.41333008 62.68383789 C-96.94253389 64.12309875 -94.47144317 65.56185049 -92 67 C-92.63421875 66.21625 -93.2684375 65.4325 -93.921875 64.625 C-97.11324472 60.59379615 -98.28805191 58.18493431 -98 53 C-94.0273654 54.47870288 -90.42707325 56.33178687 -86.75 58.4375 C-85.69296875 59.03433594 -84.6359375 59.63117188 -83.546875 60.24609375 C-81 62 -81 62 -80 65 C-77.57616923 66.16953416 -77.57616923 66.16953416 -75 67 C-74.34 67.33 -73.68 67.66 -73 68 C-73.18852539 66.97398682 -73.18852539 66.97398682 -73.38085938 65.92724609 C-74.60180909 58.2679761 -75.52111672 50.46904701 -73 43 C-67.75381578 36.78446874 -59.66035093 33.81404056 -52.38671875 30.57275391 C-47.03498393 28.08746875 -42.05005862 25.04034569 -37 22 C-35.03175753 20.84716527 -33.06168991 19.69744119 -31.08984375 18.55078125 C-30.1035498 17.97537598 -29.11725586 17.3999707 -28.10107422 16.80712891 C-24.79938613 14.8830937 -21.49556009 12.96276613 -18.19140625 11.04296875 C-17.08216797 10.39779297 -15.97292969 9.75261719 -14.83007812 9.08789062 C-12.68758256 7.84183672 -10.54437761 6.59700159 -8.40039062 5.35351562 C-7.44455078 4.79728516 -6.48871094 4.24105469 -5.50390625 3.66796875 C-4.23268921 2.92969849 -4.23268921 2.92969849 -2.93579102 2.17651367 C-1.06554585 1.14454878 -1.06554585 1.14454878 0 0 Z " fill="#7AC577" transform="translate(183,84)"/>
<path d="M0 0 C8.34368229 4.49903397 16.5899951 9.15943215 24.8125 13.875 C25.99277916 14.55088496 27.17311755 15.22666649 28.35351562 15.90234375 C30.12232279 16.91488466 31.89099339 17.9276594 33.65917969 18.94128418 C36.67986064 20.67283824 39.70240008 22.4010054 42.72851562 24.12304688 C48.82283162 27.59261535 54.89150594 31.09153049 60.875 34.75 C65.18623558 37.36524721 69.50358059 39.8200059 74.05859375 41.984375 C77.55471112 43.81332976 80.80538798 46.04611982 84.11328125 48.19140625 C87.88073503 50.55180016 91.7614783 52.65543543 95.6875 54.73828125 C98 56 98 56 101 58 C101.38476562 60.38256836 101.38476562 60.38256836 101.40625 63.33984375 C101.42816406 64.40267578 101.45007813 65.46550781 101.47265625 66.56054688 C101.48167969 67.67494141 101.49070312 68.78933594 101.5 69.9375 C101.51784951 72.13426434 101.54851886 74.33097258 101.59375 76.52734375 C101.60083984 77.50437256 101.60792969 78.48140137 101.61523438 79.48803711 C102.05482559 82.35793179 102.754061 83.23634293 105 85 C101.17045905 83.76103087 98.73435591 81.92562156 95.69873047 79.33911133 C92.87204599 77.11083246 89.77191777 75.41863326 86.625 73.6875 C85.98433594 73.32849609 85.34367187 72.96949219 84.68359375 72.59960938 C83.1254837 71.72753286 81.56317778 70.86295979 80 70 C81.68089548 76.14961761 83.59560586 80.3575305 88 85 C84.43095812 83.64694351 81.1457167 82.06310902 77.81640625 80.19921875 C76.81794678 79.64105469 75.8194873 79.08289063 74.79077148 78.5078125 C73.72544189 77.90710938 72.6601123 77.30640625 71.5625 76.6875 C70.45011963 76.06230469 69.33773926 75.43710938 68.19165039 74.79296875 C59.2624403 69.75477385 50.42283414 64.57583186 41.61328125 59.33203125 C35.30612153 55.57898252 28.96667325 51.88184262 22.625 48.1875 C21.56531006 47.57003906 20.50562012 46.95257813 19.41381836 46.31640625 C16.94285054 44.8770793 14.47160011 43.43824083 12 42 C14.61514317 39.87961365 17.19637616 37.86908256 20 36 C15.32760132 33.16446034 10.57870164 30.47258655 5.8203125 27.78515625 C1.10837438 25.10837438 1.10837438 25.10837438 0 24 C-0.08726223 22.21928754 -0.10699041 20.4351686 -0.09765625 18.65234375 C-0.09443359 17.57275391 -0.09121094 16.49316406 -0.08789062 15.38085938 C-0.07951172 14.24455078 -0.07113281 13.10824219 -0.0625 11.9375 C-0.05798828 10.79732422 -0.05347656 9.65714844 -0.04882812 8.48242188 C-0.03699747 5.65489649 -0.0205141 2.8274736 0 0 Z " fill="#7AC477" transform="translate(5,67)"/>
<path d="M0 0 C0.94101563 0.54269531 1.88203125 1.08539063 2.8515625 1.64453125 C4.10932463 2.36727516 5.36713997 3.08992648 6.625 3.8125 C7.55119141 4.34713867 7.55119141 4.34713867 8.49609375 4.89257812 C12.27265506 7.05913172 16.08447772 9.0904299 20 11 C17.70001012 13.5138022 15.31694089 15.12931764 12.37109375 16.828125 C11.43168945 17.37291504 10.49228516 17.91770508 9.52441406 18.47900391 C8.50573242 19.06343262 7.48705078 19.64786133 6.4375 20.25 C5.3762793 20.86407715 4.31505859 21.4781543 3.22167969 22.11083984 C-0.18256246 24.07911982 -3.59074633 26.04041483 -7 28 C-9.22271723 29.27853983 -11.44537418 30.55718446 -13.66796875 31.8359375 C-15.30294312 32.77421387 -15.30294312 32.77421387 -16.97094727 33.73144531 C-19.15615015 34.99333449 -21.33508292 36.2661447 -23.50756836 37.54980469 C-28.61546841 40.55759657 -33.67786976 43.37114513 -39.0859375 45.8046875 C-46.85079656 49.30762677 -46.85079656 49.30762677 -53 55 C-55.27541247 62.53847086 -54.16715843 70.34862809 -53 78 C-46.07 81.96 -46.07 81.96 -39 86 C-39 86.66 -39 87.32 -39 88 C-41.10019014 89.47309111 -43.17767729 90.81309635 -45.375 92.125 C-45.97828125 92.49753906 -46.5815625 92.87007813 -47.203125 93.25390625 C-51.72965316 96 -51.72965316 96 -54 96 C-54 103.92 -54 111.84 -54 120 C-62.69140625 115.80078125 -62.69140625 115.80078125 -66 114 C-66.64316162 113.71213623 -67.28632324 113.42427246 -67.94897461 113.12768555 C-70.16055 111.94046007 -71.47808788 111.00986173 -73 109 C-73.86557115 104.70197837 -73.6598566 100.54911015 -73.4375 96.1875 C-73.40591797 95.01767578 -73.37433594 93.84785156 -73.34179688 92.64257812 C-73.25945587 89.76064279 -73.13390407 86.88000017 -73 84 C-68.71 81.69 -64.42 79.38 -60 77 C-60 76.34 -60 75.68 -60 75 C-60.9384375 74.63648438 -61.876875 74.27296875 -62.84375 73.8984375 C-67.02918384 72.15450673 -70.23348636 70.66130331 -73 67 C-75.73673044 60.17483689 -75.88020341 52.94483493 -74.24072266 45.828125 C-70.56541592 37.45056633 -60.21184109 34.11901419 -52.38671875 30.58886719 C-47.04439066 28.08253276 -42.05246733 25.03802189 -37 22 C-35.03168634 20.84728683 -33.06161939 19.69756246 -31.08984375 18.55078125 C-30.1035498 17.97537598 -29.11725586 17.3999707 -28.10107422 16.80712891 C-24.79938613 14.8830937 -21.49556009 12.96276613 -18.19140625 11.04296875 C-17.08216797 10.39779297 -15.97292969 9.75261719 -14.83007812 9.08789062 C-12.68758256 7.84183672 -10.54437761 6.59700159 -8.40039062 5.35351562 C-7.44455078 4.79728516 -6.48871094 4.24105469 -5.50390625 3.66796875 C-4.65642822 3.17578857 -3.8089502 2.6836084 -2.93579102 2.17651367 C-1.06554585 1.14454878 -1.06554585 1.14454878 0 0 Z " fill="#E1E5EE" transform="translate(183,84)"/>
<path d="M0 0 C0.26246434 3.87370451 0.42153564 7.74512381 0.5625 11.625 C0.63791016 12.71941406 0.71332031 13.81382812 0.79101562 14.94140625 C1.00812052 22.90191914 1.00812052 22.90191914 -1.83032227 25.99365234 C-4.15409449 27.5610461 -6.46602531 28.80683423 -9 30 C-10.08410156 30.62648437 -11.16820312 31.25296875 -12.28515625 31.8984375 C-13.20167969 32.38570312 -14.11820312 32.87296875 -15.0625 33.375 C-16.00222656 33.87773437 -16.94195312 34.38046875 -17.91015625 34.8984375 C-18.59980469 35.26195312 -19.28945312 35.62546875 -20 36 C-17.36 37.65 -14.72 39.3 -12 41 C-15.07248699 44.07248699 -18.21501821 46.045543 -21.9375 48.1875 C-22.65244629 48.60241699 -23.36739258 49.01733398 -24.10400391 49.44482422 C-25.75692448 50.40195757 -27.41134204 51.35650835 -29.06689453 52.30908203 C-31.83174578 53.90300243 -34.59088034 55.50635409 -37.34895325 57.11195374 C-39.88618584 58.58695703 -42.4270555 60.05561182 -44.96878052 61.52285767 C-46.23874038 62.25712596 -47.50752373 62.99343291 -48.77511597 63.73178101 C-50.57309782 64.77798811 -52.37571951 65.81572035 -54.1796875 66.8515625 C-55.22882324 67.45822754 -56.27795898 68.06489258 -57.35888672 68.68994141 C-60 70 -60 70 -63 70 C-62.67 69.67 -62.34 69.34 -62 69 C-61.95919217 67.00041636 -61.95745644 64.99954746 -62 63 C-63.32 62.34 -64.64 61.68 -66 61 C-65.34 61.99 -64.68 62.98 -64 64 C-63.875 66.6875 -63.875 66.6875 -64 69 C-69.02494685 72.01496811 -72.28200075 72.63533325 -78 72 C-81 70 -81 70 -83 68 C-82.67 66.35 -82.34 64.7 -82 63 C-78.23312136 63 -77.08809695 63.23537317 -74 65 C-74.05349609 64.35039307 -74.10699219 63.70078613 -74.16210938 63.03149414 C-75.3441082 45.16011679 -75.3441082 45.16011679 -71.65625 40.18847656 C-67.98056803 37.20836636 -63.63158983 35.59246305 -59.24511719 33.92041016 C-55.64504769 32.4445226 -52.42963356 30.41183091 -49.125 28.375 C-47.71815241 27.53828358 -46.30918597 26.70512244 -44.8984375 25.875 C-44.13499023 25.42511719 -43.37154297 24.97523438 -42.58496094 24.51171875 C-37.32449687 21.435331 -32.03380221 18.41106099 -26.75 15.375 C-18.75980873 10.7828635 -10.81724834 6.14754895 -3.02734375 1.22265625 C-1 0 -1 0 0 0 Z " fill="#5EAF5F" transform="translate(251,124)"/>
<path d="M0 0 C0.99 0.33 1.98 0.66 3 1 C2.34 1.66 1.68 2.32 1 3 C0.58333333 5.5 0.58333333 5.5 1 8 C4.22747055 10.15164703 5.20505639 10.27245079 8.9375 10.25 C9.79214844 10.25515625 10.64679688 10.2603125 11.52734375 10.265625 C14.11974567 9.98713633 15.76514234 9.30669172 18 8 C18.20086443 4.28400809 18.1519437 3.22791555 16 0 C18.86724686 0.57344937 19.8614515 0.8614515 22 3 C22.38286803 6.73296326 22.14915785 7.77626323 20 11 C23.81157187 13.23075642 27.6244264 15.45931163 31.4375 17.6875 C32.50677734 18.31333984 33.57605469 18.93917969 34.67773438 19.58398438 C40.74640031 23.12867916 46.83628467 26.6230132 53 30 C53 30.33 53 30.66 53 31 C51.96101563 31.17015625 50.92203125 31.3403125 49.8515625 31.515625 C37.08890688 33.69229699 23.17583636 36.57281293 15.0390625 47.67578125 C13.59088424 50.07921325 12.24440199 52.4859033 11 55 C5.15701954 52.24182289 -0.47578229 49.36928897 -5.9453125 45.9296875 C-16.56720068 39.33719588 -24.28449611 34.89051548 -37 37 C-37 36.67 -37 36.34 -37 36 C-36.31292969 35.87882812 -35.62585937 35.75765625 -34.91796875 35.6328125 C-33.56638672 35.38144531 -33.56638672 35.38144531 -32.1875 35.125 C-31.29417969 34.96257812 -30.40085937 34.80015625 -29.48046875 34.6328125 C-26.77272154 34.08811551 -26.77272154 34.08811551 -24 32 C-24.10613836 29.54775306 -24.10613836 29.54775306 -25 27 C-29.43351509 24.26165244 -34.44926282 24.47677186 -39.4375 25.5 C-40.2109375 25.7475 -40.2109375 25.7475 -41 26 C-41 25.34 -41 24.68 -41 24 C-37.93042902 22.97680967 -35.77559677 22.86628061 -32.5625 22.875 C-31.14130859 22.87113281 -31.14130859 22.87113281 -29.69140625 22.8671875 C-27 23 -27 23 -25.15698242 23.67993164 C-21.98911108 24.15000287 -20.49700208 22.90223964 -17.796875 21.25390625 C-16.8171875 20.66416016 -15.8375 20.07441406 -14.828125 19.46679688 C-13.81234375 18.83837891 -12.7965625 18.20996094 -11.75 17.5625 C-10.71875 16.93794922 -9.6875 16.31339844 -8.625 15.66992188 C-6.07637998 14.12423103 -3.53534175 12.56734245 -1 11 C-1.66 10.01 -2.32 9.02 -3 8 C-3.3125 5.5 -3.3125 5.5 -3 3 C-1.5 1.1875 -1.5 1.1875 0 0 Z " fill="#96CE93" transform="translate(69,37)"/>
<path d="M0 0 C1.52429077 7.92826623 2.69203881 16.22599871 0 24 C-5.23794466 30.13734969 -13.30646092 33.10600988 -20.50976562 36.359375 C-26.2593225 39.06202065 -31.66120113 42.33085035 -37.125 45.5625 C-39.28409047 46.80523891 -41.44424227 48.04613577 -43.60546875 49.28515625 C-47.90710091 51.7690125 -52.17631861 54.29903345 -56.42578125 56.87109375 C-57.43946777 57.48202881 -58.4531543 58.09296387 -59.49755859 58.72241211 C-61.41600737 59.88237105 -63.32937372 61.05078997 -65.23681641 62.22875977 C-66.08550293 62.74108154 -66.93418945 63.25340332 -67.80859375 63.78125 C-68.54907959 64.23564453 -69.28956543 64.69003906 -70.05249023 65.15820312 C-72 66 -72 66 -75 65 C-74.34 65 -73.68 65 -73 65 C-73.07855225 64.35039307 -73.15710449 63.70078613 -73.23803711 63.03149414 C-73.97532285 56.03256818 -74.59558939 48.91550851 -73 42 C-69.48767516 37.72364832 -65.53849936 36.17398324 -60.49462891 34.10986328 C-55.66236942 31.95998545 -51.21592221 29.09308865 -46.6875 26.375 C-44.63227013 25.17354941 -42.57492471 23.9757114 -40.515625 22.78125 C-39.45923828 22.16765625 -38.40285156 21.5540625 -37.31445312 20.921875 C-28.42719192 15.76862513 -19.53068764 10.63123156 -10.62451172 5.51074219 C-8.99393811 4.57213852 -7.36503419 3.63062019 -5.73876953 2.68457031 C-1.10723872 0 -1.10723872 0 0 0 Z " fill="#5EAF5F" transform="translate(251,166)"/>
<path d="M0 0 C2.99169899 1.37761833 5.83035193 2.84567129 8.67504883 4.50610352 C9.74319824 5.12606201 10.81134766 5.74602051 11.91186523 6.38476562 C13.03383301 7.04355713 14.15580078 7.70234863 15.31176758 8.38110352 C16.47344829 9.05807368 17.63539677 9.73458457 18.79760742 10.41064453 C22.20242144 12.39354964 25.60120723 14.38664515 28.99926758 16.38110352 C29.94753418 16.93652832 30.89580078 17.49195312 31.87280273 18.06420898 C36.58772839 20.82624853 41.29693104 23.59768704 45.99926758 26.38110352 C43.10324908 29.51301806 40.2243035 31.6025525 36.51879883 33.70141602 C34.90871948 34.62059814 34.90871948 34.62059814 33.26611328 35.55834961 C32.1261792 36.2011084 30.98624512 36.84386719 29.81176758 37.50610352 C28.62928893 38.17933774 27.44724407 38.85333441 26.265625 39.52807617 C23.92018707 40.86720445 21.57346451 42.20403339 19.22583008 43.53930664 C15.06842802 45.91244837 10.93450695 48.32335794 6.81176758 50.75610352 C6.14701416 51.14773682 5.48226074 51.53937012 4.79736328 51.94287109 C0.83649008 54.28162088 -3.10962772 56.64415443 -7.04907227 59.01879883 C-8.92486174 60.14793305 -10.80409595 61.27110269 -12.68432617 62.39282227 C-14.70841414 63.60632141 -16.72390324 64.83451191 -18.72338867 66.08813477 C-19.49553711 66.55606445 -20.26768555 67.02399414 -21.06323242 67.50610352 C-21.69358398 67.90055664 -22.32393555 68.29500977 -22.97338867 68.70141602 C-26.65041722 69.93417703 -29.60428696 69.01946915 -33.06542969 67.43725586 C-35.49288666 66.17888479 -37.8733239 64.85663718 -40.25073242 63.50610352 C-41.11883545 63.02085205 -41.98693848 62.53560059 -42.88134766 62.03564453 C-52.76181333 56.46808765 -62.56189462 50.67366205 -72.00073242 44.38110352 C-72.00073242 51.97110352 -72.00073242 59.56110352 -72.00073242 67.38110352 C-73.32073242 66.72110352 -74.64073242 66.06110352 -76.00073242 65.38110352 C-76.26333615 61.67412646 -76.4223008 57.96953993 -76.56323242 54.25610352 C-76.63864258 53.20938477 -76.71405273 52.16266602 -76.79174805 51.08422852 C-77.00675254 43.53518177 -77.00675254 43.53518177 -74.41650391 40.5637207 C-72.02761758 38.93415213 -69.59222865 37.66450686 -67.00073242 36.38110352 C-64.94296409 35.19073151 -62.88984986 33.99229059 -60.84057617 32.78735352 C-59.13641184 31.82005502 -57.4321878 30.85285351 -55.72558594 29.88986206 C-52.63481303 28.14547095 -49.55052467 26.38967413 -46.46557617 24.63500977 C-45.52794937 24.10219139 -45.52794937 24.10219139 -44.57138062 23.55860901 C-36.48836755 18.96040743 -28.46430138 14.26134354 -20.43823242 9.56469727 C-19.55651367 9.05535645 -18.67479492 8.54601562 -17.76635742 8.02124023 C-15.77316317 6.83918877 -13.80717883 5.61082352 -11.86010742 4.35424805 C-10.81338867 3.69408691 -9.76666992 3.03392578 -8.68823242 2.35375977 C-7.74334961 1.73895752 -6.7984668 1.12415527 -5.82495117 0.49072266 C-3.00073242 -0.61889648 -3.00073242 -0.61889648 0 0 Z M-6.00073242 5.38110352 C-6.00073242 6.37110352 -6.00073242 7.36110352 -6.00073242 8.38110352 C-2.37073242 10.36110352 1.25926758 12.34110352 4.99926758 14.38110352 C3.67926758 15.04110352 2.35926758 15.70110352 0.99926758 16.38110352 C-2.19293408 14.78055673 -4.98692838 12.80488736 -7.93041992 10.78735352 C-10.89604796 9.07737122 -10.89604796 9.07737122 -13.92260742 9.89672852 C-17.52383783 11.63336247 -20.96340245 13.55507348 -24.37573242 15.63110352 C-25.86078218 16.52277413 -27.34650208 17.41332928 -28.83276367 18.30297852 C-29.64438965 18.78959961 -30.45601562 19.2762207 -31.29223633 19.77758789 C-34.32876134 21.57530704 -37.3870082 23.33191293 -40.44995117 25.08422852 C-41.54452637 25.71296875 -42.63910156 26.34170898 -43.7668457 26.98950195 C-45.95098609 28.24285106 -48.13813609 29.4909711 -50.32836914 30.73364258 C-51.82327881 31.59554199 -51.82327881 31.59554199 -53.34838867 32.47485352 C-54.24565674 32.98725586 -55.1429248 33.4996582 -56.06738281 34.02758789 C-56.70538818 34.47424805 -57.34339355 34.9209082 -58.00073242 35.38110352 C-58.00073242 36.04110352 -58.00073242 36.70110352 -58.00073242 37.38110352 C-55.82322063 38.97887875 -55.82322063 38.97887875 -53.12573242 40.50610352 C-52.22081055 41.04493164 -51.31588867 41.58375977 -50.38354492 42.13891602 C-48.1530122 43.53519282 -48.1530122 43.53519282 -46.00073242 43.38110352 C-46.00073242 44.04110352 -46.00073242 44.70110352 -46.00073242 45.38110352 C-51.7954478 46.29605857 -55.053511 43.74204534 -59.63354492 40.59594727 C-61.90634484 39.14376244 -61.90634484 39.14376244 -64.30541992 39.69750977 C-65.14459961 40.03588867 -65.14459961 40.03588867 -66.00073242 40.38110352 C-62.53290837 43.27578932 -59.02024975 45.66168991 -55.10620117 47.91235352 C-53.98536133 48.55817383 -52.86452148 49.20399414 -51.7097168 49.86938477 C-51.1305249 50.20019043 -50.55133301 50.53099609 -49.95458984 50.87182617 C-48.20082048 51.87391084 -46.45111317 52.88280235 -44.7019043 53.89282227 C-42.47141436 55.17359643 -40.23342086 56.44141211 -37.98730469 57.69458008 C-36.18895876 58.71010968 -34.40846598 59.75978701 -32.66845703 60.87231445 C-30.47841197 62.2892731 -30.47841197 62.2892731 -27.00073242 63.38110352 C-23.82845517 62.34230599 -21.91094048 61.40967505 -19.18823242 59.63110352 C-18.44629639 59.1824292 -17.70436035 58.73375488 -16.93994141 58.27148438 C-15.25385222 57.25041762 -13.5756992 56.21617485 -11.90405273 55.17163086 C-8.61094667 53.14071597 -5.27554602 51.18772764 -1.93041992 49.24438477 C2.86446409 46.44909323 7.65844941 43.65265803 12.43286133 40.82250977 C13.43373779 40.23155518 14.43461426 39.64060059 15.46582031 39.03173828 C17.64282057 37.61334195 19.36061729 36.38644478 20.99926758 34.38110352 C20.99926758 33.72110352 20.99926758 33.06110352 20.99926758 32.38110352 C22.99926758 30.75610352 22.99926758 30.75610352 24.99926758 29.38110352 C24.72892124 26.94393093 24.72892124 26.94393093 23.99926758 24.38110352 C19.51508365 21.39164756 15.34585569 21.75850974 9.99926758 21.38110352 C14.28926758 21.38110352 18.57926758 21.38110352 22.99926758 21.38110352 C17.97948928 17.36528088 12.93549505 14.29812406 7.37426758 11.13110352 C5.9434082 10.2996582 5.9434082 10.2996582 4.48364258 9.45141602 C3.11079102 8.66637695 3.11079102 8.66637695 1.71020508 7.86547852 C0.8779541 7.38820313 0.04570312 6.91092773 -0.81176758 6.41918945 C-3.04873135 5.16685676 -3.04873135 5.16685676 -6.00073242 5.38110352 Z " fill="#96CE93" transform="translate(205.000732421875,96.618896484375)"/>
<path d="M0 0 C3.8038987 1.47214376 7.05509212 3.1802603 10.5 5.375 C16.55675179 9.17803454 22.72795779 12.76526671 28.9375 16.3125 C29.83726562 16.82796387 30.73703125 17.34342773 31.6640625 17.87451172 C36.0551535 20.37608804 40.44841124 22.80293986 45 25 C45.02706445 27.89589652 45.04687029 30.79153795 45.0625 33.6875 C45.07087891 34.50412109 45.07925781 35.32074219 45.08789062 36.16210938 C45.10442051 40.24499084 45.03035098 44.01651707 44 48 C41.69 47.34 39.38 46.68 37 46 C36.67 47.65 36.34 49.3 36 51 C38.69073827 53.69073827 40.05362475 54.00425593 43.9375 54.3125 C47.30674327 54.19284463 49.9561819 53.52190905 53 52 C53.08226668 48.95613276 52.97608217 46.92824652 52 44 C53.65 44.66 55.3 45.32 57 46 C57.46033003 49.95883823 57.39305417 51.50290208 54.875 54.6875 C48.00951546 60.20973757 48.00951546 60.20973757 43.64916992 59.75463867 C40.63320522 58.89551537 38.31032084 57.65049474 35.61328125 56.05078125 C34.59169922 55.44943359 33.57011719 54.84808594 32.51757812 54.22851562 C31.45990234 53.59623047 30.40222656 52.96394531 29.3125 52.3125 C28.27416016 51.69955078 27.23582031 51.08660156 26.16601562 50.45507812 C19.75918425 46.66721481 13.37790609 42.83632782 7 39 C7.33 38.01 7.66 37.02 8 36 C8.81984375 36.42152344 9.6396875 36.84304687 10.484375 37.27734375 C11.56203125 37.82519531 12.6396875 38.37304688 13.75 38.9375 C14.81734375 39.48277344 15.8846875 40.02804688 16.984375 40.58984375 C19.38445885 41.71216275 21.41856752 42.50501659 24 43 C24 42.01 24 41.02 24 40 C21.7730825 38.29803144 21.7730825 38.29803144 19 36.8125 C18.071875 36.28269531 17.14375 35.75289062 16.1875 35.20703125 C15.465625 34.80871094 14.74375 34.41039062 14 34 C14.33 33.01 14.66 32.02 15 31 C14.195625 30.79375 13.39125 30.5875 12.5625 30.375 C7.79206428 28.53377919 3.55936294 26.77182841 0 23 C-1.10435634 18.99028005 -0.85936497 15.24558731 -0.5625 11.125 C-0.52189453 10.05507812 -0.48128906 8.98515625 -0.43945312 7.8828125 C-0.3336914 5.25052073 -0.18614218 2.62762763 0 0 Z " fill="#7BC578" transform="translate(133,141)"/>
<path d="M0 0 C3.63260345 1.36472823 6.90961407 2.9980116 10.26171875 4.94921875 C11.28595947 5.54299316 12.3102002 6.13676758 13.36547852 6.74853516 C15.00987915 7.70832275 15.00987915 7.70832275 16.6875 8.6875 C18.42622464 9.69649445 20.1649522 10.7054839 21.90385437 11.71417236 C23.71547661 12.76560918 25.52626478 13.81847073 27.33691406 14.87158203 C33.23797566 18.30230842 39.15055973 21.71306822 45.0625 25.125 C46.1249292 25.73947998 47.1873584 26.35395996 48.28198242 26.98706055 C54.15770938 30.38091638 60.054522 33.72975284 66 37 C62.275397 38.24153433 61.52247731 37.47452539 58 36 C51.7905109 34.76924658 45.68442722 34.74121249 39.375 34.6875 C38.26253906 34.65849609 37.15007812 34.62949219 36.00390625 34.59960938 C24.55303893 34.51296137 11.62934029 37.53849111 3.1484375 45.8046875 C-1.22548043 50.80048949 -2.28980929 53.8031936 -2.22265625 60.4609375 C-1.78060499 65.50187294 0.8991254 69.16082192 4 73 C0.21481268 71.5839494 -3.19749321 69.84578935 -6.69921875 67.83203125 C-8.37165649 66.8733313 -8.37165649 66.8733313 -10.07788086 65.89526367 C-11.28113987 65.20110033 -12.484345 64.5068436 -13.6875 63.8125 C-14.92896874 63.09910571 -16.17058871 62.38597453 -17.41235352 61.6730957 C-20.63293055 59.82302649 -23.85111573 57.96883877 -27.06860352 56.11340332 C-29.58750399 54.66131817 -32.10762573 53.2113601 -34.62773132 51.7613678 C-39.69000377 48.8482623 -44.75060077 45.93224866 -49.80859375 43.01171875 C-50.69345459 42.50084717 -51.57831543 41.98997559 -52.48999023 41.46362305 C-55.00612435 39.9964288 -57.50570291 38.50396793 -60 37 C-54.25854167 34.12927084 -47.09080062 34.49583169 -41 36 C-32.54844265 39.60361592 -24.69195078 44.46125899 -16.88989258 49.2824707 C-13.98829188 51.00695841 -11.03594142 52.52723465 -8 54 C-7.731875 53.41992188 -7.46375 52.83984375 -7.1875 52.2421875 C-4.10609225 46.09964442 -0.85618076 42.55108833 5 39 C5.70640625 38.55914062 6.4128125 38.11828125 7.140625 37.6640625 C14.87046973 33.32588433 23.40652445 31.78449202 32 30 C31.17274414 29.53625977 30.34548828 29.07251953 29.49316406 28.59472656 C26.41136944 26.86300204 23.33304139 25.12540858 20.25683594 23.38378906 C18.92743894 22.63272828 17.59672262 21.88399757 16.26464844 21.13769531 C14.34474618 20.06151692 12.4298217 18.97691206 10.515625 17.890625 C9.92380432 17.56128967 9.33198364 17.23195435 8.722229 16.89263916 C5.32496146 14.95212854 2.62861181 12.89937011 0 10 C0.66 9.34 1.32 8.68 2 8 C2.38286803 4.26703674 2.14915785 3.22373677 0 0 Z " fill="#4BA34B" transform="translate(88,37)"/>
<path d="M0 0 C2.3994217 1.24347389 4.79440223 2.49445847 7.1875 3.75 C7.86103516 4.09804687 8.53457031 4.44609375 9.22851562 4.8046875 C11.17659309 5.83099172 13.08637062 6.91119757 15 8 C15.9796875 8.5053125 16.959375 9.010625 17.96875 9.53125 C21.40777844 13.71099226 20.51785114 18.53724033 20.3125 23.75 C20.28994141 24.82894531 20.26738281 25.90789062 20.24414062 27.01953125 C20.18527448 29.68028092 20.09559565 32.34031666 20 35 C26.93 38.96 26.93 38.96 34 43 C34 43.66 34 44.32 34 45 C31.89980986 46.47309111 29.82232271 47.81309635 27.625 49.125 C27.02171875 49.49753906 26.4184375 49.87007812 25.796875 50.25390625 C21.27034684 53 21.27034684 53 19 53 C19 60.92 19 68.84 19 77 C10.30859375 72.80078125 10.30859375 72.80078125 7 71 C6.35683838 70.71213623 5.71367676 70.42427246 5.05102539 70.12768555 C2.83945 68.94046007 1.52191212 68.00986173 0 66 C-0.86557115 61.70197837 -0.6598566 57.54911015 -0.4375 53.1875 C-0.40591797 52.01767578 -0.37433594 50.84785156 -0.34179688 49.64257812 C-0.25945587 46.76064279 -0.13390407 43.88000017 0 41 C4.29 38.69 8.58 36.38 13 34 C13 33.34 13 32.68 13 32 C12.0615625 31.63648438 11.123125 31.27296875 10.15625 30.8984375 C2.50534831 27.7105618 2.50534831 27.7105618 0 24 C-1.75967186 16.21055645 -0.78294485 7.87948288 0 0 Z " fill="#D2DAE7" transform="translate(110,127)"/>
<path d="M0 0 C0.94875 0.61875 1.8975 1.2375 2.875 1.875 C0.35454901 4.4854671 -2.20155973 6.73155325 -5.125 8.875 C-4.4222998 9.26131592 -3.71959961 9.64763184 -2.99560547 10.0456543 C11.81439483 18.19946116 26.49287258 26.51730508 41.01416016 35.17773438 C46.40834548 38.37797131 51.83025003 41.53081908 57.25 44.6875 C58.30985107 45.3050415 59.36970215 45.92258301 60.46166992 46.55883789 C62.93246611 47.99809875 65.40355683 49.43685049 67.875 50.875 C67.24078125 50.09125 66.6065625 49.3075 65.953125 48.5 C62.76175528 44.46879615 61.58694809 42.05993431 61.875 36.875 C65.8476346 38.35370288 69.44792675 40.20678687 73.125 42.3125 C74.18203125 42.90933594 75.2390625 43.50617188 76.328125 44.12109375 C78.875 45.875 78.875 45.875 79.875 48.875 C81.45028152 49.32018826 83.02934508 49.75456615 84.62109375 50.13671875 C89.33833748 51.68188177 93.58688762 54.40914153 97.875 56.875 C97.875 57.535 97.875 58.195 97.875 58.875 C95.65768064 60.27320138 93.42961846 61.64263358 91.1875 63 C90.56166016 63.39832031 89.93582031 63.79664063 89.29101562 64.20703125 C87.42578125 65.3203125 87.42578125 65.3203125 83.875 66.875 C80.01954804 65.726322 76.65142239 63.70578884 73.17578125 61.70703125 C72.06251465 61.06886475 70.94924805 60.43069824 69.80224609 59.77319336 C68.59728318 59.07804466 67.3923691 58.3828113 66.1875 57.6875 C64.93065201 56.96531382 63.67365088 56.2433941 62.41650391 55.52172852 C59.18862852 53.66756933 55.96310651 51.80936047 52.73846436 49.94958496 C49.87974796 48.30107817 47.01981546 46.65468312 44.16015625 45.0078125 C38.81525078 41.92779352 33.47349933 38.84234144 28.13232422 35.75585938 C24.77839437 33.81921753 21.4226497 31.88575427 18.06640625 29.953125 C5.96803001 22.98491893 -6.11035214 15.98673446 -18.125 8.875 C-6.83034142 -2.9908827 -6.83034142 -2.9908827 0 0 Z " fill="#96CE93" transform="translate(23.125,100.125)"/>
<path d="M0 0 C3.66095826 1.38289079 7.01704575 3.02896063 10.4296875 4.94140625 C11.46617432 5.51947021 12.50266113 6.09753418 13.57055664 6.69311523 C15.80168242 7.95530438 18.02733558 9.22720953 20.24780273 10.50805664 C27.44320572 14.65583364 27.44320572 14.65583364 34.98046875 18.1171875 C39.27160023 19.95827673 42.00692187 21.30378605 45 25 C46.72716231 32.54053788 45.92017375 40.39039905 45 48 C40.66692113 47.40423295 37.5770745 45.83289138 33.80859375 43.6484375 C33.22263931 43.31131744 32.63668488 42.97419739 32.03297424 42.62686157 C30.16394423 41.54944974 28.3007199 40.46242223 26.4375 39.375 C24.60497683 38.31571281 22.77136907 37.2583387 20.93710327 36.20207214 C19.72712297 35.50005095 18.52120585 34.7909791 17.31948853 34.0749054 C14.39885333 32.33997899 11.53864804 30.7859436 8.44873047 29.35229492 C5.2286273 27.79458726 2.63084816 26.42660326 0 24 C-1.41754022 19.7573855 -1.15844569 15.97423713 -0.75 11.5625 C-0.69585937 10.44939453 -0.64171875 9.33628906 -0.5859375 8.18945312 C-0.44493141 5.45158488 -0.24848772 2.72986058 0 0 Z " fill="#7AC577" transform="translate(133,183)"/>
<path d="M0 0 C0.94875 0.350625 1.8975 0.70125 2.875 1.0625 C2.875 2.0525 2.875 3.0425 2.875 4.0625 C2.215 4.7225 1.555 5.3825 0.875 6.0625 C1.535 7.0525 2.195 8.0425 2.875 9.0625 C2.5 12.25 2.5 12.25 1.875 15.0625 C-1.03982778 15.87217438 -2.58613217 16.28095993 -5.4375 15.125 C-5.994375 14.774375 -6.55125 14.42375 -7.125 14.0625 C-7.125 12.0825 -7.125 10.1025 -7.125 8.0625 C-11.66201494 6.61065522 -15.30561476 5.82740804 -20.125 6.0625 C-20.125 7.7125 -20.125 9.3625 -20.125 11.0625 C-19.361875 11.31 -18.59875 11.5575 -17.8125 11.8125 C-14.75019304 13.23682882 -13.60109575 14.02830319 -12.125 17.0625 C-12.0625 20.625 -12.0625 20.625 -13.125 24.0625 C-18.10118264 27.46029971 -22.41307279 27.40540291 -28.1875 27.1875 C-29.76159714 27.14381077 -31.33582676 27.10462312 -32.91015625 27.0703125 C-34.00928345 27.04578003 -34.00928345 27.04578003 -35.13061523 27.02075195 C-37.29586422 27.00441663 -37.29586422 27.00441663 -40.0390625 27.67578125 C-40.72742188 27.80339844 -41.41578125 27.93101563 -42.125 28.0625 C-44.4375 26.125 -44.4375 26.125 -46.125 24.0625 C-45.135 23.0725 -44.145 22.0825 -43.125 21.0625 C-43.785 20.0725 -44.445 19.0825 -45.125 18.0625 C-44.75 14.875 -44.75 14.875 -44.125 12.0625 C-41.8125 11.4375 -41.8125 11.4375 -39.125 11.0625 C-38.135 11.7225 -37.145 12.3825 -36.125 13.0625 C-36.00125 14.0525 -35.8775 15.0425 -35.75 16.0625 C-35.46569672 19.18364709 -35.46569672 19.18364709 -33.0625 20.4375 C-29.30849811 21.23622381 -25.96122061 21.19254138 -22.125 21.0625 C-22.18063651 19.22781168 -22.18063651 19.22781168 -23.125 17.0625 C-24.115 16.299375 -25.105 15.53625 -26.125 14.75 C-28.84176431 12.62383663 -29.13032542 12.04563617 -30.25 8.5 C-30.125 5.0625 -30.125 5.0625 -28.4375 2.6875 C-25.06630559 0.31855257 -22.14602955 -0.06941976 -18.0859375 0 C-17.34085938 0.00773437 -16.59578125 0.01546875 -15.828125 0.0234375 C-15.05984375 0.03632812 -14.2915625 0.04921875 -13.5 0.0625 C-8.92556048 0.13848737 -4.09483231 -1.22844969 0 0 Z " fill="#49A149" transform="translate(149.125,81.9375)"/>
<path d="M0 0 C0.54527344 0.2276001 1.09054688 0.4552002 1.65234375 0.68969727 C1.65234375 1.34969727 1.65234375 2.00969727 1.65234375 2.68969727 C-0.65765625 4.00969727 -2.96765625 5.32969727 -5.34765625 6.68969727 C-1.55853184 9.68942076 2.54066207 12.16480536 6.65234375 14.68969727 C5.33234375 15.67969727 4.01234375 16.66969727 2.65234375 17.68969727 C1.82089844 17.26817383 0.98945313 16.84665039 0.1328125 16.41235352 C-0.95386719 15.86450195 -2.04054688 15.31665039 -3.16015625 14.75219727 C-4.23910156 14.20692383 -5.31804687 13.66165039 -6.4296875 13.09985352 C-9.30977152 11.63117657 -9.30977152 11.63117657 -12.34765625 10.68969727 C-15.16293468 11.91232163 -15.16293468 11.91232163 -18.23828125 13.77563477 C-19.10439529 14.27463791 -19.10439529 14.27463791 -19.98800659 14.78372192 C-21.86367733 15.86773407 -23.73054893 16.9660129 -25.59765625 18.06469727 C-26.87435087 18.80577017 -28.15153244 19.54600481 -29.42919922 20.28540039 C-37.29829839 24.85075424 -45.11962221 29.49544063 -52.85546875 34.28344727 C-55.34765625 35.68969727 -55.34765625 35.68969727 -57.34765625 35.68969727 C-57.34765625 36.34969727 -57.34765625 37.00969727 -57.34765625 37.68969727 C-56.66703125 37.93719727 -55.98640625 38.18469727 -55.28515625 38.43969727 C-51.77900542 39.93167634 -48.63145257 41.75805237 -45.34765625 43.68969727 C-45.34765625 44.34969727 -45.34765625 45.00969727 -45.34765625 45.68969727 C-47.72265625 46.56469727 -47.72265625 46.56469727 -51.34765625 46.68969727 C-54.03895945 45.27633993 -56.48825223 43.67881409 -58.98046875 41.93969727 C-61.18932691 40.49566419 -61.18932691 40.49566419 -63.27734375 40.87719727 C-63.96054688 41.14532227 -64.64375 41.41344727 -65.34765625 41.68969727 C-67.32765625 42.34969727 -69.30765625 43.00969727 -71.34765625 43.68969727 C-71.34765625 51.60969727 -71.34765625 59.52969727 -71.34765625 67.68969727 C-72.66765625 67.02969727 -73.98765625 66.36969727 -75.34765625 65.68969727 C-75.61025998 61.98272021 -75.76922463 58.27813368 -75.91015625 54.56469727 C-75.98556641 53.51797852 -76.06097656 52.47125977 -76.13867188 51.39282227 C-76.35367637 43.84377552 -76.35367637 43.84377552 -73.76342773 40.87231445 C-71.37454141 39.24274588 -68.93915248 37.97310061 -66.34765625 36.68969727 C-64.28988792 35.49932526 -62.23677369 34.30088434 -60.1875 33.09594727 C-58.48333567 32.12864877 -56.77911162 31.16144726 -55.07250977 30.19845581 C-51.98173685 28.4540647 -48.8974485 26.69826788 -45.8125 24.94360352 C-44.8748732 24.41078514 -44.8748732 24.41078514 -43.91830444 23.86720276 C-35.83529138 19.26900118 -27.81122521 14.56993729 -19.78515625 9.87329102 C-18.90601563 9.36266113 -18.026875 8.85203125 -17.12109375 8.32592773 C-15.11195508 7.14060667 -13.11905749 5.92761479 -11.13671875 4.69799805 C-10.07195312 4.04686035 -9.0071875 3.39572266 -7.91015625 2.72485352 C-6.94207031 2.12165283 -5.97398437 1.51845215 -4.9765625 0.89697266 C-2.34765625 -0.31030273 -2.34765625 -0.31030273 0 0 Z " fill="#88B1D4" transform="translate(204.34765625,96.310302734375)"/>
<path d="M0 0 C3.10632753 1.21036162 5.80299169 2.59715801 8.66479492 4.29980469 C9.67864258 4.89792969 10.69249023 5.49605469 11.73706055 6.11230469 C12.7818457 6.73621094 13.82663086 7.36011719 14.90307617 8.00292969 C16.96855353 9.22845491 19.03495544 10.45242329 21.10229492 11.67480469 C22.11146973 12.27494385 23.12064453 12.87508301 24.16040039 13.4934082 C28.06500502 15.74212848 32.06258667 17.79058207 36.09570312 19.79858398 C38.57615833 21.50030823 39.05570865 22.42376594 39.71557617 25.31542969 C39.96307617 27.26449219 39.96307617 27.26449219 40.21557617 29.25292969 C41.84110456 32.43331132 43.56889576 34.85831407 46.21557617 37.25292969 C42.64653429 35.89987319 39.36129287 34.31603871 36.03198242 32.45214844 C34.53260132 31.61393555 34.53260132 31.61393555 33.00292969 30.75878906 C31.93872803 30.15873047 30.87452637 29.55867188 29.77807617 28.94042969 C28.67584717 28.32103516 27.57361816 27.70164063 26.43798828 27.06347656 C16.44432224 21.42517998 6.5432507 15.63466854 -3.29956055 9.73730469 C-5.07291362 8.67796231 -6.85114071 7.62676158 -8.63256836 6.58105469 C-9.55021973 6.03964844 -10.46787109 5.49824219 -11.41333008 4.94042969 C-12.25065674 4.44929688 -13.0879834 3.95816406 -13.95068359 3.45214844 C-14.55581787 3.05640625 -15.16095215 2.66066406 -15.78442383 2.25292969 C-15.78442383 1.92292969 -15.78442383 1.59292969 -15.78442383 1.25292969 C-15.01356445 1.19234375 -14.24270508 1.13175781 -13.44848633 1.06933594 C-11.94415039 0.94365234 -11.94415039 0.94365234 -10.40942383 0.81542969 C-9.41168945 0.73421875 -8.41395508 0.65300781 -7.38598633 0.56933594 C-0.84364865 -0.22635378 -0.84364865 -0.22635378 0 0 Z " fill="#49A249" transform="translate(46.784423828125,114.7470703125)"/>
<path d="M0 0 C0.54672363 0.226875 1.09344727 0.45375 1.65673828 0.6875 C-1.20085931 3.78033559 -3.98585368 5.80979448 -7.67529297 7.82421875 C-8.71306885 8.3965625 -9.75084473 8.96890625 -10.82006836 9.55859375 C-11.92084717 10.15800781 -13.02162598 10.75742188 -14.15576172 11.375 C-16.44315223 12.63763566 -18.72961624 13.90195127 -21.01513672 15.16796875 C-22.11535156 15.77688965 -23.21556641 16.38581055 -24.34912109 17.01318359 C-27.91055257 19.00472771 -31.42176658 21.06409718 -34.90576172 23.1875 C-41.55791426 27.22767072 -48.2537837 31.18921917 -54.96826172 35.125 C-56.5355603 36.04925781 -56.5355603 36.04925781 -58.13452148 36.9921875 C-59.12379639 37.57097656 -60.11307129 38.14976563 -61.13232422 38.74609375 C-62.45804443 39.52424438 -62.45804443 39.52424438 -63.81054688 40.31811523 C-66.34326172 41.6875 -66.34326172 41.6875 -71.34326172 43.6875 C-71.34326172 51.6075 -71.34326172 59.5275 -71.34326172 67.6875 C-72.66326172 67.0275 -73.98326172 66.3675 -75.34326172 65.6875 C-75.60586545 61.98052295 -75.7648301 58.27593642 -75.90576172 54.5625 C-75.98117188 53.51578125 -76.05658203 52.4690625 -76.13427734 51.390625 C-76.3497194 43.82621509 -76.3497194 43.82621509 -73.71948242 40.8503418 C-71.34073424 39.23384441 -68.92043061 37.96348639 -66.34326172 36.6875 C-64.45407776 35.5828431 -62.57018742 34.46909694 -60.69091797 33.34765625 C-58.59761665 32.14538406 -56.50247768 30.94630724 -54.40576172 29.75 C-52.69065686 28.76600014 -50.9755549 27.78199521 -49.26062012 26.79769897 C-47.48385537 25.77841552 -45.70633911 24.76045255 -43.92871094 23.74267578 C-38.10087272 20.40429556 -32.28526272 17.04471638 -26.46826172 13.6875 C-25.43064697 13.08945557 -24.39303223 12.49141113 -23.32397461 11.87524414 C-22.32229248 11.29766357 -21.32061035 10.72008301 -20.28857422 10.125 C-19.31436523 9.56683594 -18.34015625 9.00867188 -17.33642578 8.43359375 C-15.22810348 7.20368175 -13.13767371 5.94284046 -11.06103516 4.66015625 C-9.9965918 4.00917969 -8.93214844 3.35820313 -7.83544922 2.6875 C-6.39854736 1.7903125 -6.39854736 1.7903125 -4.93261719 0.875 C-2.34326172 -0.3125 -2.34326172 -0.3125 0 0 Z " fill="#89B1D5" transform="translate(181.34326171875,83.3125)"/>
<path d="M0 0 C0.66 0.33 1.32 0.66 2 1 C1.34 1.66 0.68 2.32 0 3 C-0.38286803 6.73296326 -0.14915785 7.77626323 2 11 C-0.5197616 12.58506012 -3.04076562 14.16808381 -5.5625 15.75 C-6.26697266 16.1934375 -6.97144531 16.636875 -7.69726562 17.09375 C-9.10739858 17.97751996 -10.52098169 18.85580915 -11.93798828 19.72851562 C-13.28304149 20.55790671 -14.62045666 21.3998533 -15.94873047 22.25585938 C-20.47556903 25.0650377 -20.47556903 25.0650377 -22.984375 24.75390625 C-23.64953125 24.50511719 -24.3146875 24.25632812 -25 24 C-27.4157906 23.93168013 -29.83334713 23.91512358 -32.25 23.9375 C-34.14492188 23.95103516 -34.14492188 23.95103516 -36.078125 23.96484375 C-37.04234375 23.97644531 -38.0065625 23.98804687 -39 24 C-36.9507144 21.79939584 -35.01033347 20.29539192 -32.3671875 18.87109375 C-31.65103271 18.48042725 -30.93487793 18.08976074 -30.19702148 17.68725586 C-29.43075439 17.27483643 -28.6644873 16.86241699 -27.875 16.4375 C-21.33820681 12.86499664 -14.8564191 9.21808195 -8.4375 5.4375 C-7.7057959 5.00816162 -6.9740918 4.57882324 -6.22021484 4.13647461 C-2.92284335 2.32262146 -2.92284335 2.32262146 0 0 Z " fill="#4AA249" transform="translate(67,37)"/>
<path d="M0 0 C1.89534959 1.01764896 3.73193244 2.09760594 5.56616211 3.22143555 C6.20231445 3.59848633 6.8384668 3.97553711 7.49389648 4.36401367 C9.04499113 5.28534057 10.58773554 6.22070148 12.12866211 7.15893555 C12.12866211 7.81893555 12.12866211 8.47893555 12.12866211 9.15893555 C10.11473684 10.70075371 8.14150492 12.06116508 6.00366211 13.40893555 C5.43389648 13.79823242 4.86413086 14.1875293 4.27709961 14.58862305 C1.29414396 16.47330866 -0.35023019 17.24714388 -3.87133789 16.65112305 C-7.28460179 14.9533798 -10.53903272 13.08748162 -13.74633789 11.03393555 C-14.33930664 10.66139648 -14.93227539 10.28885742 -15.54321289 9.9050293 C-16.98947219 8.99528554 -18.43091835 8.07789757 -19.87133789 7.15893555 C-18.45629028 3.66249515 -16.94597713 2.20490042 -13.68383789 0.34643555 C-12.57975586 -0.31291992 -12.57975586 -0.31291992 -11.45336914 -0.9855957 C-7.36889424 -2.33884836 -3.91428395 -1.75925743 0 0 Z " fill="#E1E5EE" transform="translate(131.871337890625,162.841064453125)"/>
<path d="M0 0 C0.77923828 0.06574219 1.55847656 0.13148438 2.36132812 0.19921875 C4.26356299 0.36260089 6.16340379 0.55346811 8.0625 0.75 C5.63465757 3.44205623 3.00468978 5.0923387 -0.12890625 6.89453125 C-1.67094727 7.78688477 -1.67094727 7.78688477 -3.24414062 8.69726562 C-4.31857422 9.31279297 -5.39300781 9.92832031 -6.5 10.5625 C-8.60581419 11.77674486 -10.71128644 12.99158295 -12.81640625 14.20703125 C-13.84008301 14.79436035 -14.86375977 15.38168945 -15.91845703 15.98681641 C-19.66108266 18.17258725 -23.33382031 20.46373089 -26.99194336 22.7878418 C-27.9549939 23.26411011 -27.9549939 23.26411011 -28.9375 23.75 C-29.5975 23.42 -30.2575 23.09 -30.9375 22.75 C-30.2775 22.09 -29.6175 21.43 -28.9375 20.75 C-28.55463197 17.01703674 -28.78834215 15.97373677 -30.9375 12.75 C-28.58389882 11.33238693 -26.22963772 9.9158896 -23.875 8.5 C-22.88983398 7.90638672 -22.88983398 7.90638672 -21.88476562 7.30078125 C-20.55595 6.50218269 -19.22311136 5.71024268 -17.88647461 4.92480469 C-16.63332907 4.16943248 -15.39956518 3.38038162 -14.19360352 2.55175781 C-9.27578581 -0.68377916 -5.60174056 -0.60481518 0 0 Z " fill="#49A249" transform="translate(217.9375,130.25)"/>
<path d="M0 0 C0.66 0.33 1.32 0.66 2 1 C1.36199463 1.3717334 0.72398926 1.7434668 0.06665039 2.12646484 C-1.84682655 3.24152862 -3.76014195 4.35686962 -5.67333984 5.47241211 C-7.85669441 6.74502857 -10.04061784 8.01666954 -12.22509766 9.28735352 C-17.27123804 12.22578679 -22.30951099 15.17347356 -27.30859375 18.19140625 C-28.0879126 18.65949707 -28.86723145 19.12758789 -29.67016602 19.60986328 C-31.11607271 20.48051333 -32.55813443 21.35758796 -33.99584961 22.24169922 C-35.62895915 23.22185359 -37.3103955 24.12080377 -39 25 C-39.66 24.67 -40.32 24.34 -41 24 C-40.67 23.67 -40.34 23.34 -40 23 C-39.85363946 19.63370749 -39.92806521 17.21580438 -41 14 C-37.42876206 11.79226891 -33.84127178 9.61246397 -30.25 7.4375 C-29.23421875 6.80908203 -28.2184375 6.18066406 -27.171875 5.53320312 C-25.70234375 4.64858398 -25.70234375 4.64858398 -24.203125 3.74609375 C-23.30239258 3.19622803 -22.40166016 2.6463623 -21.47363281 2.07983398 C-18.67810566 0.85948098 -17.78702543 0.95826769 -15 2 C-9.54864837 2.38115141 -5.01742671 2.35191877 0 0 Z " fill="#48A148" transform="translate(229,170)"/>
<path d="M0 0 C0 0.99 0 1.98 0 3 C2.23558031 4.59240659 2.23558031 4.59240659 5 6 C7.8125 7.5 7.8125 7.5 10 9 C10 9.99 10 10.98 10 12 C8.359375 12.73046875 8.359375 12.73046875 6 13 C2.9402776 11.2384741 0.13539131 9.23044378 -2.734375 7.17578125 C-3.81203125 6.78777344 -4.8896875 6.39976562 -6 6 C-9.96 7.98 -9.96 7.98 -14 10 C-14.33 17.92 -14.66 25.84 -15 34 C-16.32 33.34 -17.64 32.68 -19 32 C-21.37581548 11.43640324 -21.37581548 11.43640324 -17.59228516 5.96386719 C-12.85531062 1.74203379 -6.34295958 -2.02131544 0 0 Z " fill="#85AECD" transform="translate(148,172)"/>
<path d="M0 0 C4.97069177 0.55980606 8.61818417 2.83834201 12.8125 5.375 C13.50537109 5.77460938 14.19824219 6.17421875 14.91210938 6.5859375 C16.66421109 7.63547232 18.34015226 8.80992049 20 10 C20 10.99 20 11.98 20 13 C19.67 13.33 19.34 13.66 19 14 C18.70613847 17.72224599 18.85190829 18.77786243 21 22 C17.17877607 20.57885846 13.77377795 18.80810468 10.26171875 16.7421875 C9.19501953 16.11699219 8.12832031 15.49179688 7.02929688 14.84765625 C5.92650391 14.19667969 4.82371094 13.54570312 3.6875 12.875 C2.00430664 11.88693359 2.00430664 11.88693359 0.28710938 10.87890625 C-2.47708656 9.2556763 -5.23936632 7.62927846 -8 6 C-7.67 5.34 -7.34 4.68 -7 4 C-3.3337746 4.34370863 -1.04417461 5.5365637 1.9375 7.5625 C5.42460177 9.86517821 7.74551568 10.53181054 12 10 C12 9.34 12 8.68 12 8 C11.319375 7.7525 10.63875 7.505 9.9375 7.25 C6.43134917 5.75802092 3.28379632 3.93164489 0 2 C0 1.34 0 0.68 0 0 Z " fill="#4CA34C" transform="translate(147,132)"/>
<path d="M0 0 C4.18056254 0.59055034 7.12061861 2.01277361 10.73828125 4.16015625 C11.80498047 4.78857422 12.87167969 5.41699219 13.97070312 6.06445312 C15.07349609 6.72380859 16.17628906 7.38316406 17.3125 8.0625 C18.43462891 8.72572266 19.55675781 9.38894531 20.71289062 10.07226562 C23.4791287 11.70846602 26.2412485 13.35121864 29 15 C24.89815675 16.36728108 21.10548472 16.02167617 16.8125 15.9375 C13.91788889 15.86344089 13.91788889 15.86344089 11 17 C8.9152832 16.10375977 8.9152832 16.10375977 6.55078125 14.69140625 C5.70322266 14.19189453 4.85566406 13.69238281 3.98242188 13.17773438 C2.66081055 12.37819336 2.66081055 12.37819336 1.3125 11.5625 C-0.02651367 10.76875977 -0.02651367 10.76875977 -1.39257812 9.95898438 C-3.60063292 8.64832083 -5.80260395 7.3284301 -8 6 C-7.67 5.34 -7.34 4.68 -7 4 C-3.45756548 5.36591169 -0.07372071 6.90931484 3.3125 8.625 C4.19550781 9.07101563 5.07851562 9.51703125 5.98828125 9.9765625 C6.65214844 10.31429687 7.31601563 10.65203125 8 11 C8.99 10.34 9.98 9.68 11 9 C7.04 6.69 3.08 4.38 -1 2 C-0.67 1.34 -0.34 0.68 0 0 Z " fill="#4CA34C" transform="translate(199,102)"/>
<path d="M0 0 C2.625 1.8125 2.625 1.8125 3.5 4.5 C3.54125 5.263125 3.5825 6.02625 3.625 6.8125 C-1.01432728 10.49196647 -4.43882087 11.22189166 -10.375 10.8125 C-13.3125 9.6875 -13.3125 9.6875 -15.375 7.8125 C-16 4.8125 -16 4.8125 -15.375 1.8125 C-10.74515897 -2.39644639 -5.63022426 -1.98100483 0 0 Z " fill="#49A249" transform="translate(42.375,62.1875)"/>
<path d="M0 0 C1.546875 -0.02900391 1.546875 -0.02900391 3.125 -0.05859375 C6.65128688 0.54988238 7.831488 1.64644867 10 4.4375 C10.125 6.5 10.125 6.5 9 8.4375 C4.64598994 11.34017338 1.17661156 12.00222126 -4 11.4375 C-6.875 10.25 -6.875 10.25 -9 8.4375 C-9.8125 5.75 -9.8125 5.75 -10 3.4375 C-6.70251387 0.44915319 -4.40826471 0.00551033 0 0 Z " fill="#49A149" transform="translate(220,118.5625)"/>
<path d="M0 0 C3.125 1.1875 3.125 1.1875 5 3 C5.625 5.5 5.625 5.5 5 8 C1.32470091 11.55278912 -2.76435339 11.35375365 -7.59765625 11.3984375 C-10.49354981 10.91814296 -11.88237316 10.00718371 -14 8 C-14.5 5.5 -14.5 5.5 -14 3 C-9.77926798 -1.00060314 -5.51062257 -0.64987956 0 0 Z " fill="#48A148" transform="translate(83,37)"/>
<path d="M0 0 C1.2375 0.7425 1.2375 0.7425 2.5 1.5 C2.75 3.8125 2.75 3.8125 2.5 6.5 C-0.52666882 9.47716723 -2.82679075 9.90939458 -7 9.875 C-8.40765625 9.88660156 -8.40765625 9.88660156 -9.84375 9.8984375 C-12.9066021 9.43900969 -14.28637246 8.63694298 -16.5 6.5 C-17.0625 4 -17.0625 4 -16.5 1.5 C-11.5851232 -2.9541071 -5.69571521 -2.4410208 0 0 Z " fill="#48A147" transform="translate(184.5,144.5)"/>
<path d="M0 0 C5.10454793 0.5537478 8.96575557 3.02592796 13.3125 5.5625 C14.05306641 5.98724609 14.79363281 6.41199219 15.55664062 6.84960938 C17.37468118 7.89351653 19.18783748 8.94592192 21 10 C21 10.66 21 11.32 21 12 C20.34 12 19.68 12 19 12 C19 14.64 19 17.28 19 20 C12.91117584 18.40193652 7.9335245 15.1388717 2.625 11.875 C1.69816406 11.31167969 0.77132812 10.74835938 -0.18359375 10.16796875 C-2.45903155 8.78393957 -4.7309763 7.39451078 -7 6 C-6.67 5.01 -6.34 4.02 -6 3 C-5.18015625 3.42152344 -4.3603125 3.84304687 -3.515625 4.27734375 C-2.43796875 4.82519531 -1.3603125 5.37304688 -0.25 5.9375 C0.81734375 6.48277344 1.8846875 7.02804688 2.984375 7.58984375 C5.38445885 8.71216275 7.41856752 9.50501659 10 10 C10 9.01 10 8.02 10 7 C7.77018131 5.33446878 7.77018131 5.33446878 5 3.875 C3.3213763 2.93776843 1.65116495 1.98480195 0 1 C0 0.67 0 0.34 0 0 Z " fill="#4AA24A" transform="translate(147,174)"/>
<path d="M0 0 C0.75023437 0.58394531 0.75023437 0.58394531 1.515625 1.1796875 C0.1468802 2.14693382 -1.22973104 3.1030519 -2.609375 4.0546875 C-3.37507813 4.58835938 -4.14078125 5.12203125 -4.9296875 5.671875 C-7.484375 7.1796875 -7.484375 7.1796875 -13.484375 9.1796875 C-13.484375 17.4296875 -13.484375 25.6796875 -13.484375 34.1796875 C-14.804375 33.5196875 -16.124375 32.8596875 -17.484375 32.1796875 C-19.85750147 11.63936512 -19.85750147 11.63936512 -16.07666016 6.12744141 C-11.99942576 2.45026271 -5.54046771 -1.82939972 0 0 Z " fill="#88B0CF" transform="translate(123.484375,158.8203125)"/>
<path d="M0 0 C0.763125 0.309375 1.52625 0.61875 2.3125 0.9375 C4.18789677 1.67893593 6.08684652 2.36228217 8 3 C8.804375 2.484375 9.60875 1.96875 10.4375 1.4375 C11.283125 0.963125 12.12875 0.48875 13 0 C15.3125 0.8125 15.3125 0.8125 17 2 C17 3.65 17 5.3 17 7 C11.97505315 10.01496811 8.71799925 10.63533325 3 10 C0 8 0 8 -2 6 C-1.125 1.125 -1.125 1.125 0 0 Z " fill="#49A148" transform="translate(170,186)"/>
<path d="M0 0 C0.99 0.33 1.98 0.66 3 1 C3.36235628 4.17061742 3.1397724 5.7508405 1.5625 8.5625 C-1.91430625 11.86970594 -5.18915277 14.21737413 -10 15 C-15.19637171 13.47791317 -19.12446928 10.59349955 -22 6 C-21.6875 3.75 -21.6875 3.75 -21 2 C-18.47154472 3.26422764 -18.23577236 4.52845528 -17 7 C-14.41246844 8.29376578 -12.45041015 8.16832397 -9.5625 8.1875 C-8.59441406 8.20167969 -7.62632812 8.21585938 -6.62890625 8.23046875 C-3.76733273 8.19149451 -3.76733273 8.19149451 -1 6 C-0.26656572 2.93443402 -0.26656572 2.93443402 0 0 Z " fill="#8FCB8C" transform="translate(187,145)"/>
<path d="M0 0 C3.63 0 7.26 0 11 0 C11 1.98 11 3.96 11 6 C10.01 6 9.02 6 8 6 C8 5.01 8 4.02 8 3 C5.03 2.505 5.03 2.505 2 2 C2.680625 2.763125 3.36125 3.52625 4.0625 4.3125 C4.701875 5.199375 5.34125 6.08625 6 7 C5 10 5 10 3 11 C1.12620395 11.07033769 -0.75001102 11.0843022 -2.625 11.0625 C-3.62789062 11.05347656 -4.63078125 11.04445312 -5.6640625 11.03515625 C-6.43492187 11.02355469 -7.20578125 11.01195312 -8 11 C-8 9.02 -8 7.04 -8 5 C-6.68 5 -5.36 5 -4 5 C-3.01 6.485 -3.01 6.485 -2 8 C0.05925139 8.72382467 0.05925139 8.72382467 2 9 C0.68 7.35 -0.64 5.7 -2 4 C-1.34 2.68 -0.68 1.36 0 0 Z " fill="#4BA34B" transform="translate(176,119)"/>
<path d="M0 0 C0.91007812 0.00902344 1.82015625 0.01804688 2.7578125 0.02734375 C3.80582031 0.04474609 3.80582031 0.04474609 4.875 0.0625 C5.80923645 3.07281744 5.91949911 3.92900268 4.875 7.0625 C1.875 6.0625 1.875 6.0625 -0.125 3.0625 C-2.18425139 2.33867533 -2.18425139 2.33867533 -4.125 2.0625 C-2.805 3.7125 -1.485 5.3625 -0.125 7.0625 C-0.8125 9.0078125 -0.8125 9.0078125 -2.125 11.0625 C-4.4375 11.7421875 -4.4375 11.7421875 -7.125 11.9375 C-8.011875 12.01742187 -8.89875 12.09734375 -9.8125 12.1796875 C-12.125 12.0625 -12.125 12.0625 -14.125 10.0625 C-13.75 7.4375 -13.75 7.4375 -13.125 5.0625 C-12.135 5.0625 -11.145 5.0625 -10.125 5.0625 C-10.125 6.0525 -10.125 7.0425 -10.125 8.0625 C-7.155 8.5575 -7.155 8.5575 -4.125 9.0625 C-4.805625 8.299375 -5.48625 7.53625 -6.1875 6.75 C-6.826875 5.863125 -7.46625 4.97625 -8.125 4.0625 C-7.795 3.0725 -7.465 2.0825 -7.125 1.0625 C-4.60024538 -0.19987731 -2.81299534 -0.03606404 0 0 Z " fill="#4CA34B" transform="translate(82.125,60.9375)"/>
<path d="M0 0 C10.11838544 -0.29906558 17.31440609 0.68228944 26 6 C26 6.66 26 7.32 26 8 C24.04775792 9.28406399 22.03659238 10.47941678 20 11.625 C18.329375 12.57246094 18.329375 12.57246094 16.625 13.5390625 C15.75875 14.02117187 14.8925 14.50328125 14 15 C12.68 14.01 11.36 13.02 10 12 C11.98 11.01 13.96 10.02 16 9 C15.65555119 6.52733235 15.65555119 6.52733235 15 4 C11.73485494 2.36742747 8.13841388 2.60198086 4.53125 2.37890625 C2 2 2 2 0 0 Z " fill="#89C786" transform="translate(213,117)"/>
<path d="M0 0 C3.87097412 1.34431319 7.14891777 3.37034347 10.61328125 5.53515625 C11.30615234 5.95990234 11.99902344 6.38464844 12.71289062 6.82226562 C14.41295076 7.86575081 16.10743601 8.91830921 17.80078125 9.97265625 C16.55078125 11.53515625 16.55078125 11.53515625 14.80078125 12.97265625 C11.82385331 12.52440349 9.50384673 11.39134697 6.91015625 9.90625 C6.20117188 9.50341797 5.4921875 9.10058594 4.76171875 8.68554688 C4.03210937 8.26466797 3.3025 7.84378906 2.55078125 7.41015625 C1.80570313 6.98541016 1.060625 6.56066406 0.29296875 6.12304688 C-1.54020836 5.07719583 -3.37004552 4.02549433 -5.19921875 2.97265625 C-2.47412109 -0.03076172 -2.47412109 -0.03076172 0 0 Z " fill="#91CC8E" transform="translate(50.19921875,119.02734375)"/>
<path d="M0 0 C2.48183432 1.25470513 4.85700153 2.53496459 7.25 3.9375 C7.88679688 4.29779297 8.52359375 4.65808594 9.1796875 5.02929688 C13.86908657 7.73817315 13.86908657 7.73817315 15 10 C13.05078125 11.296875 13.05078125 11.296875 10 12 C6.81699687 10.82564304 4.0495303 9.05406269 1.1875 7.25 C0.39923828 6.78078125 -0.38902344 6.3115625 -1.20117188 5.828125 C-5.41243477 3.26125999 -5.41243477 3.26125999 -7 2 C-7 1.34 -7 0.68 -7 0 C-4.20201609 -1.39899196 -3.00749348 -0.85987728 0 0 Z " fill="#92CC8F" transform="translate(104,49)"/>
<path d="M0 0 C5.26705998 -0.73636567 8.55616445 1.78734978 12.8125 4.5 C13.50537109 4.92925781 14.19824219 5.35851562 14.91210938 5.80078125 C16.61425793 6.85728725 18.3079911 7.9273302 20 9 C19.67 9.99 19.34 10.98 19 12 C13.68544522 11.484897 10.09376879 9.63835295 5.625 6.9375 C4.66400391 6.37192383 4.66400391 6.37192383 3.68359375 5.79492188 C2.11745934 4.87160383 0.55801966 3.93694607 -1 3 C-0.67 2.01 -0.34 1.02 0 0 Z " fill="#93CD90" transform="translate(47,78)"/>
<path d="M0 0 C4.06543167 0.44855025 6.87543602 1.90860657 10.3125 4.0625 C11.19550781 4.61035156 12.07851563 5.15820312 12.98828125 5.72265625 C13.65214844 6.14417969 14.31601562 6.56570312 15 7 C12.51981247 9.48018753 11.61484049 9.32361558 8.1875 9.375 C4.39081278 9.32005518 3.17961961 9.11495655 -0.125 7 C-0.74375 6.34 -1.3625 5.68 -2 5 C-1.125 1.125 -1.125 1.125 0 0 Z " fill="#49A249" transform="translate(28,105)"/>
<path d="M0 0 C1.5625 0.75 1.5625 0.75 2.25 2.5625 C2.5625 4.75 2.5625 4.75 1.3125 6.4375 C-1.58836368 8.61314776 -4.1229425 8.86991078 -7.625 8.8125 C-9.5121875 8.7815625 -9.5121875 8.7815625 -11.4375 8.75 C-11.7675 8.09 -12.0975 7.43 -12.4375 6.75 C-9.43459764 3.21717369 -4.76147692 -0.48835661 0 0 Z " fill="#47A147" transform="translate(227.4375,162.25)"/>
<path d="M0 0 C0 2.97 0 5.94 0 9 C1.32 9.66 2.64 10.32 4 11 C4 11.66 4 12.32 4 13 C-1.63992111 11.83311977 -5.39483731 10.45387201 -10 7 C-8.60449526 2.81348579 -4.64858615 0 0 0 Z " fill="#90CB8D" transform="translate(28,61)"/>
<path d="M0 0 C2.00753698 1.09040327 4.00588751 2.19773572 6 3.3125 C7.11375 3.92738281 8.2275 4.54226562 9.375 5.17578125 C10.24125 5.77777344 11.1075 6.37976563 12 7 C12 7.99 12 8.98 12 10 C10.390625 10.71484375 10.390625 10.71484375 8 11 C4.984375 9.56640625 4.984375 9.56640625 1.75 7.5625 C0.67234375 6.90378906 -0.4053125 6.24507812 -1.515625 5.56640625 C-2.33546875 5.04949219 -3.1553125 4.53257812 -4 4 C-2.68 2.68 -1.36 1.36 0 0 Z " fill="#91CC90" transform="translate(146,174)"/>
<path d="M0 0 C1.27537423 0.75725345 2.54081088 1.53144296 3.796875 2.3203125 C4.4465625 2.71089844 5.09625 3.10148437 5.765625 3.50390625 C7.36807552 4.47008965 8.95867793 5.45587422 10.546875 6.4453125 C9.226875 7.4353125 7.906875 8.4253125 6.546875 9.4453125 C4.5837914 8.51780052 2.62653473 7.57794797 0.671875 6.6328125 C-0.96394531 5.84970703 -0.96394531 5.84970703 -2.6328125 5.05078125 C-5.453125 3.4453125 -5.453125 3.4453125 -7.453125 0.4453125 C-4.41841249 -1.99165361 -3.62565188 -1.63236363 0 0 Z " fill="#92CC90" transform="translate(200.453125,104.5546875)"/>
<path d="M0 0 C0.99 0.33 1.98 0.66 3 1 C3 8.92 3 16.84 3 25 C2.01 24.67 1.02 24.34 0 24 C0 16.08 0 8.16 0 0 Z " fill="#6991BF" transform="translate(130,181)"/>
<path d="M0 0 C0.99 0.33 1.98 0.66 3 1 C3 8.92 3 16.84 3 25 C2.01 24.67 1.02 24.34 0 24 C0 16.08 0 8.16 0 0 Z " fill="#6993BC" transform="translate(106,167)"/>
<path d="M0 0 C0.66 0.66 1.32 1.32 2 2 C1.34 2.66 0.68 3.32 0 4 C0.0950739 6.0480428 0.0950739 6.0480428 1 8 C4.7367843 10.49118953 6.74451819 10.2065226 11.1875 10.125 C12.45980469 10.10695313 13.73210938 10.08890625 15.04296875 10.0703125 C16.01878906 10.04710938 16.99460937 10.02390625 18 10 C16.1988919 12.28387935 15.16505484 12.96022488 12.29296875 13.65234375 C2.86654227 14.51791499 2.86654227 14.51791499 -0.6875 12.4375 C-3 10 -3 10 -4.125 7 C-4 4 -4 4 -2.0625 1.625 C-1.381875 1.08875 -0.70125 0.5525 0 0 Z " fill="#85C583" transform="translate(27,103)"/>
<path d="M0 0 C0.99 0 1.98 0 3 0 C3 7.92 3 15.84 3 24 C2.01 23.67 1.02 23.34 0 23 C0 15.41 0 7.82 0 0 Z " fill="#6992C1" transform="translate(130,140)"/>
<path d="M0 0 C4.97209562 1.76429199 9.43438061 4.3939166 14 7 C14 7.66 14 8.32 14 9 C10.27123927 10.01240833 8.55055995 10.26378003 5.0078125 8.56640625 C4.05648437 7.90511719 3.10515625 7.24382812 2.125 6.5625 C0.67480469 5.57443359 0.67480469 5.57443359 -0.8046875 4.56640625 C-1.52914062 4.04949219 -2.25359375 3.53257812 -3 3 C-2.01 2.01 -1.02 1.02 0 0 Z " fill="#93CD91" transform="translate(145,133)"/>
<path d="M0 0 C0.99 0.33 1.98 0.66 3 1 C3 8.59 3 16.18 3 24 C2.01 23.67 1.02 23.34 0 23 C0 15.41 0 7.82 0 0 Z " fill="#6993BD" transform="translate(106,126)"/>
<path d="M0 0 C2.86724686 0.57344937 3.8614515 0.8614515 6 3 C6.125 5.375 6.125 5.375 5 8 C0.24091232 11.84435394 -4.8565105 12.44292542 -10.80078125 12.43359375 C-13.42077445 11.91704092 -14.33242659 11.0345475 -16 9 C-15.11957031 9.03480469 -14.23914063 9.06960937 -13.33203125 9.10546875 C-11.58986328 9.14607422 -11.58986328 9.14607422 -9.8125 9.1875 C-8.08966797 9.23970703 -8.08966797 9.23970703 -6.33203125 9.29296875 C-2.72960801 8.97622579 -0.90633161 8.08533398 2 6 C1.49396008 3.83125748 1.00016187 2.00032373 0 0 Z " fill="#8DC98A" transform="translate(227,161)"/>
<path d="M0 0 C2.475 0.99 2.475 0.99 5 2 C5.375 4.75 5.375 4.75 5 8 C2.05016595 11.0295593 0.3656061 11.88385792 -3.84765625 12.2421875 C-6.57747559 12.2492322 -9.27619834 12.1744784 -12 12 C-12 11.67 -12 11.34 -12 11 C-11.22914063 10.86722656 -10.45828125 10.73445312 -9.6640625 10.59765625 C-8.66117188 10.42105469 -7.65828125 10.24445313 -6.625 10.0625 C-5.62726563 9.88847656 -4.62953125 9.71445313 -3.6015625 9.53515625 C-1.03090344 9.12287938 -1.03090344 9.12287938 1 8 C1.08226668 4.95613276 0.97608217 2.92824652 0 0 Z " fill="#90CB8D" transform="translate(185,185)"/>
<path d="M0 0 C0.66 0.33 1.32 0.66 2 1 C0.61518672 1.87191947 -0.78345246 2.72190384 -2.1875 3.5625 C-2.96480469 4.03816406 -3.74210938 4.51382813 -4.54296875 5.00390625 C-7.56022867 6.22711973 -8.95166808 6.07265362 -12 5 C-13.8125 3.4375 -13.8125 3.4375 -15 2 C-14.08476562 1.93941406 -13.16953125 1.87882813 -12.2265625 1.81640625 C-10.44378906 1.69072266 -10.44378906 1.69072266 -8.625 1.5625 C-7.44164062 1.48128906 -6.25828125 1.40007812 -5.0390625 1.31640625 C-2.08481099 1.18915064 -2.08481099 1.18915064 0 0 Z " fill="#57AA57" transform="translate(186,195)"/>
<path d="M0 0 C3.0831351 1.19899698 6.06279492 2.47700477 9 4 C9 4.66 9 5.32 9 6 C3.7265625 9.22265625 3.7265625 9.22265625 2 10 C1.34 9.67 0.68 9.34 0 9 C0.33 8.67 0.66 8.34 1 8 C1.24733137 3.85723125 1.24733137 3.85723125 0 0 Z " fill="#55A854" transform="translate(230,119)"/>
<path d="M0 0 C0.66 0.33 1.32 0.66 2 1 C-1.22517892 3.05061678 -4.3439728 4.84853715 -8 6 C-11.07459872 5.22729768 -12.47440243 4.03145892 -15 2 C-12.03024895 1.13212755 -9.46182922 0.91740925 -6.375 1 C-3.05700369 1.12662242 -3.05700369 1.12662242 0 0 Z " fill="#53A752" transform="translate(185,154)"/>
<path d="M0 0 C0.99 0.33 1.98 0.66 3 1 C3.70211894 2.65204456 4.36971413 4.31923769 5 6 C5.66 6.33 6.32 6.66 7 7 C4.36 7 1.72 7 -1 7 C-1.04254356 5.00045254 -1.04080783 2.99958364 -1 1 C-0.67 0.67 -0.34 0.34 0 0 Z " fill="#55A954" transform="translate(169,123)"/>
<path d="M0 0 C3.3 0 6.6 0 10 0 C11 4 11 4 10 7 C9.01 6.67 8.02 6.34 7 6 C6.71125 5.34 6.4225 4.68 6.125 4 C5.1446618 1.70849401 5.1446618 1.70849401 2.375 1.25 C1.59125 1.1675 0.8075 1.085 0 1 C0 0.67 0 0.34 0 0 Z " fill="#53A853" transform="translate(77,61)"/>
<path d="M0 0 C1.9453125 0.77734375 1.9453125 0.77734375 4.125 1.9375 C5.21167969 2.50791016 5.21167969 2.50791016 6.3203125 3.08984375 C6.87460938 3.39019531 7.42890625 3.69054688 8 4 C4.68929162 5.00109515 1.69915231 5.10356134 -1.75 5.0625 C-2.73484375 5.05347656 -3.7196875 5.04445313 -4.734375 5.03515625 C-5.48203125 5.02355469 -6.2296875 5.01195312 -7 5 C-2.25 1.125 -2.25 1.125 0 0 Z " fill="#52A752" transform="translate(78,31)"/>
<path d="M0 0 C0.66 0.33 1.32 0.66 2 1 C1.34 1.66 0.68 2.32 0 3 C0.3269756 5.61580479 0.82039068 7.64078137 2 10 C-0.9719385 8.87548273 -3.33440687 7.77706209 -6 6 C-5 3 -5 3 -2.5625 1.25 C-1.716875 0.8375 -0.87125 0.425 0 0 Z " fill="#4FA54F" transform="translate(24,62)"/>
<path d="M0 0 C2.91517292 1.07401108 4.77810176 1.77810176 7 4 C5.02 5.32 3.04 6.64 1 8 C0.34 7.67 -0.32 7.34 -1 7 C-0.67 4.69 -0.34 2.38 0 0 Z " fill="#4CA34C" transform="translate(232,162)"/>
<path d="M0 0 C-3.122002 2.08133467 -3.93266989 2.2737822 -7.5 2.25 C-8.66015625 2.25773437 -8.66015625 2.25773437 -9.84375 2.265625 C-12 2 -12 2 -15 0 C-13.25093341 -0.19601608 -11.50068154 -0.38147403 -9.75 -0.5625 C-8.77546875 -0.66691406 -7.8009375 -0.77132812 -6.796875 -0.87890625 C-4.2368648 -0.98974468 -2.41851841 -0.77738092 0 0 Z " fill="#8CC989" transform="translate(45,114)"/>
<path d="M0 0 C0 2.31 0 4.62 0 7 C-2.02045442 6.39816251 -4.02111039 5.72693904 -6 5 C-6.33 4.34 -6.66 3.68 -7 3 C-2.25 0 -2.25 0 0 0 Z " fill="#4CA34C" transform="translate(24,105)"/>
<path d="M0 0 C3.0831351 1.19899698 6.06279492 2.47700477 9 4 C8.67 4.99 8.34 5.98 8 7 C7.01 7 6.02 7 5 7 C3.61328125 5.46875 3.61328125 5.46875 2.3125 3.5 C1.87550781 2.8503125 1.43851563 2.200625 0.98828125 1.53125 C0.49908203 0.77328125 0.49908203 0.77328125 0 0 Z " fill="#51A651" transform="translate(164,81)"/>
<path d="M0 0 C1.60568666 0.28317926 3.20952047 0.57687791 4.8125 0.875 C6.15248047 1.11863281 6.15248047 1.11863281 7.51953125 1.3671875 C10 2 10 2 13 4 C10.07406105 4.85637238 7.91825712 5.38673104 5.04296875 4.17578125 C3.32488268 3.17852152 1.65798613 2.09427085 0 1 C0 0.67 0 0.34 0 0 Z " fill="#51A652" transform="translate(103,158)"/>
<path d="M0 0 C3.63 0.66 7.26 1.32 11 2 C10.67 2.99 10.34 3.98 10 5 C5.59885603 4.49701212 3.28804981 2.91227269 0 0 Z " fill="#51A654" transform="translate(104,117)"/>
<path d="M0 0 C0.66 0 1.32 0 2 0 C1.67 2.64 1.34 5.28 1 8 C0.34 7.01 -0.32 6.02 -1 5 C-1.66 5.99 -2.32 6.98 -3 8 C-2.45276317 4.62537285 -1.9451 2.91765 0 0 Z " fill="#80C27E" transform="translate(26,61)"/>
</svg>
