<svg xmlns="http://www.w3.org/2000/svg" version="1.1" xmlns:xlink="http://www.w3.org/1999/xlink" width="512" height="512" x="0" y="0" viewBox="0 0 468 468" style="enable-background:new 0 0 512 512" xml:space="preserve" class=""><g><path fill="#52c1ff" d="M330.666 453.582v-115.94c0-62.785-50.65-113.682-113.13-113.682H162.13C99.65 223.96 49 274.857 49 337.642v115.94z" opacity="1" data-original="#52c1ff"></path><path fill="#f9c7a5" d="M330.665 453.581h-66.172v-94.013h66.172zM49 359.569h60.574v94.013H49zM191.634 271.746h-3.603c-17.519 0-31.721-14.202-31.721-31.721v-76.792h67.045v76.792c0 17.519-14.202 31.721-31.721 31.721z" opacity="1" data-original="#f9c7a5" class=""></path><ellipse cx="189.92" cy="120.682" fill="#fcdeca" rx="82.258" ry="92.595" opacity="1" data-original="#fcdeca" class=""></ellipse><path fill="#738394" d="M109.77 118.436c2.569 2.85-38.266-52.361-2.944-68.176-5.915-13.508 3.553-50.867 39.556-50.252h48.585c126.786 7.954 83.541 112.337 76.516 118.428a162.893 162.893 0 0 1-108.964-41.802l-4.234-3.811-.033.086a75.733 75.733 0 0 1-48.482 45.527z" opacity="1" data-original="#738394" class=""></path><ellipse cx="316.491" cy="365.585" fill="#67c7a5" rx="102.509" ry="102.415" opacity="1" data-original="#67c7a5"></ellipse><path fill="#ffffff" d="M367.85 353.585h-39.358v-38.68c0-6.627-5.373-12-12-12s-12 5.373-12 12v38.68h-39.358c-6.627 0-12 5.373-12 12s5.373 12 12 12h39.358v38.68c0 6.627 5.373 12 12 12s12-5.373 12-12v-38.68h39.358c6.627 0 12-5.373 12-12s-5.373-12-12-12z" opacity="1" data-original="#ffffff"></path></g></svg>