<?xml version="1.0" encoding="UTF-8"?>
<svg version="1.1" xmlns="http://www.w3.org/2000/svg" width="256" height="256">
<path d="M0 0 C2.51928711 1.21484375 2.51928711 1.21484375 5.02734375 2.9375 C6.44539307 3.8970459 6.44539307 3.8970459 7.89208984 4.87597656 C8.8970752 5.5769043 9.90206055 6.27783203 10.9375 7 C11.99146973 7.71897461 13.04543945 8.43794922 14.13134766 9.17871094 C17.43215824 11.43692744 20.71751136 13.71525063 24 16 C25.01562012 16.70447266 26.03124023 17.40894531 27.07763672 18.13476562 C30.98398518 20.84521478 34.88750276 23.55959722 38.78417969 26.28393555 C45.07559138 30.68049293 51.41815347 34.98567881 57.81762695 39.22290039 C67.78860282 45.83186351 77.66779709 52.57702544 87.55892944 59.30458069 C91.18890302 61.77249936 94.8234536 64.23348546 98.46229553 66.68830872 C100.77939448 68.25173098 103.09484447 69.81758508 105.41012573 71.38369751 C107.02849951 72.47703012 108.64911462 73.56704272 110.26977539 74.65698242 C111.73145142 75.64661987 111.73145142 75.64661987 113.22265625 76.65625 C114.07609619 77.23181641 114.92953613 77.80738281 115.80883789 78.40039062 C116.53192139 78.92826172 117.25500488 79.45613281 118 80 C118.53247439 80.38693496 119.06494879 80.77386992 119.61355877 81.17253017 C121.73879757 83.97380995 121.37468647 86.36079989 121.3742218 89.83912659 C121.37819621 90.53856618 121.38217061 91.23800578 121.38626546 91.95864052 C121.39590858 94.30800012 121.3840587 96.65676057 121.37231445 99.00610352 C121.37474174 100.68801092 121.37846044 102.36991688 121.38337708 104.05181885 C121.39279766 108.62402049 121.38335126 113.1960085 121.37004495 117.76819348 C121.35874729 122.54654815 121.3628366 127.32489204 121.36479187 132.10325623 C121.3656753 140.12738546 121.35458362 148.15143029 121.33618164 156.17553711 C121.31500608 165.46243541 121.31150538 174.74921008 121.3177436 184.03612763 C121.32343102 192.95874772 121.31779942 201.88132412 121.30657005 210.80393791 C121.30191654 214.60654442 121.30105345 218.40912428 121.3031559 222.21173286 C121.30503453 226.68587967 121.29696784 231.15989998 121.2810955 235.63401794 C121.27684001 237.27959609 121.27601055 238.92518705 121.27878571 240.57076836 C121.28198999 242.80993841 121.27297059 245.04872632 121.26069641 247.28785706 C121.25761711 249.1707662 121.25761711 249.1707662 121.25447559 251.09171391 C121 254 121 254 119 256 C117.1893692 256.25069833 117.1893692 256.25069833 114.94885254 256.25168228 C114.09615532 256.25689778 113.2434581 256.26211327 112.36492157 256.26748681 C111.42272011 256.26302537 110.48051865 256.25856392 109.50976562 256.25396729 C108.51308113 256.25708727 107.51639664 256.26020725 106.48950958 256.26342177 C103.12836403 256.2714399 99.76739711 256.2650633 96.40625 256.25878906 C94.00528863 256.26149723 91.60432809 256.26505718 89.20336914 256.26940918 C83.34617535 256.27760491 77.48902845 256.27637389 71.63183594 256.2705839 C66.87312397 256.26607385 62.11442638 256.26545165 57.35571289 256.26763153 C56.34120332 256.26809123 56.34120332 256.26809123 55.3061986 256.26856022 C53.93238512 256.26919964 52.55857165 256.26984807 51.18475819 256.2705054 C38.29139847 256.2762135 25.39806716 256.26964329 12.5047121 256.25890467 C1.43281467 256.24996871 -9.63904083 256.25152062 -20.7109375 256.26074219 C-33.55700624 256.27143636 -46.40305005 256.27566413 -59.24912262 256.26951766 C-60.61798604 256.26888054 -61.98684946 256.2682518 -63.35571289 256.26763153 C-64.0292844 256.26732298 -64.7028559 256.26701443 -65.39683867 256.26669653 C-70.15185359 256.26496702 -74.90685275 256.26789018 -79.66186523 256.27259064 C-86.05740583 256.27877361 -92.45288568 256.27439473 -98.84841919 256.26280212 C-101.20191312 256.2601475 -103.5554137 256.2609342 -105.90890503 256.26532745 C-109.10928364 256.27075278 -112.30940371 256.26398557 -115.50976562 256.25396729 C-116.45196709 256.25842873 -117.39416855 256.26289017 -118.36492157 256.26748681 C-119.21761879 256.26227132 -120.07031601 256.25705582 -120.94885254 256.25168228 C-121.68822304 256.25135758 -122.42759354 256.25103287 -123.1893692 256.25069833 C-125 256 -125 256 -127 254 C-127.26564884 251.10009384 -127.26564884 251.10009384 -127.28761292 247.30804443 C-127.29426073 246.61228153 -127.30090854 245.91651862 -127.30775779 245.19967198 C-127.32752036 242.85670867 -127.33283845 240.51393597 -127.33813477 238.17089844 C-127.34902489 236.49562577 -127.36069605 234.82035802 -127.37309265 233.14509583 C-127.40365601 228.58504981 -127.42063031 224.02505437 -127.43330884 219.46492672 C-127.44138502 216.6168611 -127.45156532 213.76881013 -127.46232414 210.92075348 C-127.49506056 202.01256567 -127.51895414 193.10441325 -127.531138 184.19617343 C-127.54539169 173.90801664 -127.58925404 163.62054598 -127.65863949 153.33261657 C-127.71039929 145.38434318 -127.7353096 137.43626501 -127.73996013 129.48782563 C-127.74336093 124.73884383 -127.75825908 119.99055518 -127.80124092 115.24175262 C-127.84097735 110.77305271 -127.84740435 106.30553014 -127.82834053 101.83670616 C-127.82707369 100.19760492 -127.83776258 98.55844373 -127.86135483 96.9195118 C-128.02950827 84.52959632 -128.02950827 84.52959632 -125.46633244 80.72134686 C-123.70577669 79.1829149 -122.06562714 78.07839475 -120 77 C-119.24823486 76.45061768 -118.49646973 75.90123535 -117.72192383 75.33520508 C-117.05700928 74.90103271 -116.39209473 74.46686035 -115.70703125 74.01953125 C-114.53708618 73.24863159 -114.53708618 73.24863159 -113.34350586 72.4621582 C-112.09065796 71.64557739 -112.09065796 71.64557739 -110.8125 70.8125 C-108.93414126 69.57406039 -107.05657885 68.33441236 -105.1796875 67.09375 C-104.1803418 66.43375 -103.18099609 65.77375 -102.15136719 65.09375 C-96.55258206 61.37394978 -90.99596599 57.59213371 -85.4375 53.8125 C-84.24522179 53.00232585 -83.05292019 52.19218613 -81.8605957 51.38208008 C-79.44442729 49.74025308 -77.02853487 48.0980209 -74.61279297 46.45556641 C-69.32347968 42.8598449 -64.03050281 39.26952316 -58.73773193 35.67889404 C-55.84978545 33.71968339 -52.96198348 31.76025978 -50.07421875 29.80078125 C-49.50060608 29.41156494 -48.92699341 29.02234863 -48.33599854 28.62133789 C-44.64465952 26.11647774 -40.95388699 23.61078479 -37.26345825 21.10458374 C-34.72402694 19.3800784 -32.18440798 17.65584953 -29.64477539 15.93164062 C-28.44383563 15.11618572 -27.242986 14.30059806 -26.04223633 13.48486328 C-23.32911087 11.64170949 -20.61424297 9.8014736 -17.89306641 7.97021484 C-16.04959542 6.71478777 -14.22163901 5.43604489 -12.41552734 4.12744141 C-11.25657959 3.30058838 -11.25657959 3.30058838 -10.07421875 2.45703125 C-9.42412842 1.97854736 -8.77403809 1.50006348 -8.10424805 1.00708008 C-5.20387294 -0.38102148 -3.18362731 -0.35082902 0 0 Z " fill="#EF7A51" transform="translate(131,0)"/>
<path d="M0 0 C0.71098469 -0.00467997 1.42196938 -0.00935994 2.15449905 -0.01418173 C4.54296634 -0.02617219 6.93086413 -0.01665905 9.31933594 -0.00723267 C11.02917822 -0.01129658 12.73901788 -0.01663745 14.44885254 -0.02316284 C19.09755363 -0.03686371 23.74605546 -0.0315264 28.39476013 -0.02202559 C33.2540644 -0.01444332 38.11335133 -0.0214706 42.97265625 -0.02618408 C51.1338203 -0.03164582 59.29490298 -0.02443906 67.45605469 -0.01016235 C76.89860684 0.00616496 86.34096468 0.00087675 95.78351212 -0.01564157 C103.88293245 -0.02924453 111.9822942 -0.03118193 120.08172226 -0.02332556 C124.92255591 -0.01864249 129.76329816 -0.01804156 134.60412598 -0.02793503 C139.15464905 -0.03658513 143.704921 -0.03061873 148.25541687 -0.01325226 C149.92798953 -0.00927692 151.60058323 -0.01043928 153.27314758 -0.01704025 C155.55152677 -0.02520481 157.82909477 -0.01499682 160.10742188 0 C161.38389587 0.00113108 162.66036987 0.00226215 163.9755249 0.00342751 C167.05371094 0.38095093 167.05371094 0.38095093 168.96359253 1.77170372 C170.41618055 3.91603336 170.44128083 5.36420481 170.45214844 7.94345093 C170.45601562 8.82259155 170.45988281 9.70173218 170.46386719 10.60751343 C170.44646484 11.98036499 170.44646484 11.98036499 170.42871094 13.38095093 C170.4403125 14.2961853 170.45191406 15.21141968 170.46386719 16.15438843 C170.46 17.03352905 170.45613281 17.91266968 170.45214844 18.81845093 C170.44876465 19.62153687 170.44538086 20.4246228 170.44189453 21.25204468 C170.05371094 23.38095093 170.05371094 23.38095093 168.90380859 25.16610718 C166.29585949 26.87858471 164.11072975 26.46142347 161.05371094 26.38095093 C161.05555452 27.11609106 161.05739811 27.85123119 161.05929756 28.6086483 C161.1034201 46.47641515 161.13653994 64.34417116 161.15733528 82.21198082 C161.16765843 90.85263396 161.18173852 99.49325078 161.20458984 108.13388062 C161.22449202 115.6629411 161.23741982 123.19197529 161.24188793 130.72106135 C161.2445007 134.70956527 161.25066326 138.69799397 161.26517105 142.68647385 C161.27870493 146.43745375 161.28294214 150.18832715 161.2799263 153.93932915 C161.28047835 155.318844 161.28448075 156.69836226 161.29212189 158.07785606 C161.30201699 159.95574773 161.29850116 161.83369603 161.29421997 163.71160889 C161.29606356 164.76429647 161.29790714 165.81698406 161.29980659 166.90157127 C161.05371094 169.38095093 161.05371094 169.38095093 159.05371094 171.38095093 C157.18075562 171.62145996 157.18075562 171.62145996 154.87939453 171.60800171 C154.01865326 171.60785065 153.15791199 171.60769958 152.27108765 171.60754395 C151.34083771 171.59722137 150.41058777 171.5868988 149.45214844 171.57626343 C148.02474838 171.57201859 148.02474838 171.57201859 146.56851196 171.56768799 C143.52178502 171.55647082 140.4753494 171.53136356 137.42871094 171.50595093 C135.36621518 171.49592311 133.30371482 171.48679692 131.24121094 171.47860718 C126.17859826 171.45652647 121.11620403 171.42198623 116.05371094 171.38095093 C116.38371094 170.72095093 116.71371094 170.06095093 117.05371094 169.38095093 C117.14959772 167.59907212 117.18166762 165.81360059 117.18310547 164.02914429 C117.18783371 162.35246925 117.18783371 162.35246925 117.19265747 160.641922 C117.19063324 159.43044998 117.18860901 158.21897797 117.18652344 156.97079468 C117.18795853 155.11412926 117.18795853 155.11412926 117.18942261 153.21995544 C117.19027892 149.92743183 117.18624409 146.63495512 117.18066406 143.34243774 C117.17871151 141.31904605 117.18065867 139.29569767 117.18408203 137.27230835 C117.19023343 133.40094974 117.18951808 129.5296559 117.18652344 125.65829468 C117.18955978 123.83805031 117.18955978 123.83805031 117.19265747 121.98103333 C117.18950531 120.86640213 117.18635315 119.75177094 117.18310547 118.60336304 C117.18230988 117.61678207 117.18151428 116.63020111 117.18069458 115.61372375 C117.30388757 113.40918895 117.30388757 113.40918895 116.05371094 112.38095093 C114.35128391 112.27691623 112.64455439 112.24241884 110.93896484 112.23568726 C109.84758209 112.2293074 108.75619934 112.22292755 107.63174438 112.21635437 C106.44325897 112.21524155 105.25477356 112.21412872 104.03027344 112.21298218 C102.81802094 112.20965378 101.60576843 112.20632538 100.35678101 112.20289612 C97.78603496 112.19782131 95.2152823 112.19548796 92.64453125 112.19564819 C88.70268931 112.19346421 84.76112819 112.17532092 80.81933594 112.15634155 C78.3271494 112.15340731 75.83496153 112.15142272 73.34277344 112.15048218 C71.56611801 112.1397039 71.56611801 112.1397039 69.75357056 112.12870789 C68.65588348 112.13178452 67.55819641 112.13486115 66.42724609 112.13803101 C65.45985504 112.13660599 64.49246399 112.13518097 63.49575806 112.13371277 C60.79622415 112.21455904 60.79622415 112.21455904 58.05371094 114.38095093 C57.39371094 113.39095093 56.73371094 112.40095093 56.05371094 111.38095093 C56.71371094 110.72095093 57.37371094 110.06095093 58.05371094 109.38095093 C58.36027426 106.9687767 58.36027426 106.9687767 58.3125 104.1368103 C58.32195648 102.49500793 58.32195648 102.49500793 58.331604 100.82003784 C58.32755554 99.63357666 58.32350708 98.44711548 58.31933594 97.22470093 C58.32124939 96.0114917 58.32316284 94.79828247 58.32513428 93.54830933 C58.32649728 90.97933749 58.32279286 88.4103588 58.31445312 85.84140015 C58.30375554 81.89739589 58.31434487 77.95384718 58.32714844 74.00985718 C58.32582686 71.51897075 58.32326452 69.02808461 58.31933594 66.53720093 C58.3233844 65.35073975 58.32743286 64.16427856 58.331604 62.94186401 C58.32529968 61.8473291 58.31899536 60.75279419 58.3125 59.62509155 C58.31090881 58.65849609 58.30931763 57.69190063 58.30767822 56.6960144 C58.27677492 54.18682728 58.27677492 54.18682728 56.05371094 52.38095093 C53.68909498 52.08142625 53.68909498 52.08142625 50.91723633 52.13803101 C49.84594986 52.13495438 48.77466339 52.13187775 47.6709137 52.12870789 C46.50946335 52.1358934 45.348013 52.14307892 44.15136719 52.15048218 C42.96272568 52.1509404 41.77408417 52.15139862 40.54942322 52.15187073 C38.03171798 52.15489633 35.51401466 52.16279175 32.99633789 52.17514038 C29.13583768 52.19335831 25.2755777 52.19565037 21.41503906 52.19540405 C18.97297969 52.20032059 16.53092195 52.20614951 14.08886719 52.21298218 C12.92944107 52.214095 11.77001495 52.21520782 10.57545471 52.21635437 C8.96379677 52.22592415 8.96379677 52.22592415 7.31958008 52.23568726 C6.37297012 52.23949905 5.42636017 52.24331085 4.45106506 52.24723816 C1.90712665 52.28375336 1.90712665 52.28375336 -0.94628906 53.38095093 C-0.94628906 44.47095093 -0.94628906 35.56095093 -0.94628906 26.38095093 C-3.25628906 26.38095093 -5.56628906 26.38095093 -7.94628906 26.38095093 C-10.79428723 22.10895368 -10.27647222 18.40296807 -10.25878906 13.38095093 C-10.27490234 12.46571655 -10.29101562 11.55048218 -10.30761719 10.60751343 C-10.30826172 9.7283728 -10.30890625 8.84923218 -10.30957031 7.94345093 C-10.31255127 7.14036499 -10.31553223 6.33727905 -10.31860352 5.50985718 C-9.31113426 -0.25088508 -5.05666723 0.00448069 0 0 Z " fill="#74757B" transform="translate(47.9462890625,84.61904907226563)"/>
<path d="M0 0 C1.07121094 -0.00945648 2.14242187 -0.01891296 3.24609375 -0.02865601 C4.98052734 -0.01954697 4.98052734 -0.01954697 6.75 -0.01025391 C7.93722656 -0.01312408 9.12445313 -0.01599426 10.34765625 -0.01895142 C12.85937985 -0.02099417 15.37111928 -0.01544963 17.8828125 -0.00292969 C21.73473572 0.01311999 25.58560955 -0.00277228 29.4375 -0.02197266 C31.87500232 -0.01999026 34.31250399 -0.01614667 36.75 -0.01025391 C37.90628906 -0.0163266 39.06257813 -0.02239929 40.25390625 -0.02865601 C41.32511719 -0.01919952 42.39632812 -0.00974304 43.5 0 C44.91539063 0.00358017 44.91539063 0.00358017 46.359375 0.00723267 C48.75 0.38818359 48.75 0.38818359 50.55485535 1.57858276 C52.18985302 4.05417694 52.12425108 5.77204901 52.12231445 8.72998047 C52.13165764 10.366828 52.13165764 10.366828 52.14118958 12.03674316 C52.13197983 13.21490601 52.12277008 14.39306885 52.11328125 15.60693359 C52.11402901 17.4210675 52.11402901 17.4210675 52.11479187 19.27185059 C52.11244981 21.83066449 52.1027136 24.38948062 52.08618164 26.94824219 C52.06259462 30.87244189 52.06561936 34.79596231 52.07226562 38.72021484 C52.06668889 41.20329183 52.05957905 43.68636594 52.05078125 46.16943359 C52.05214836 47.93667786 52.05214836 47.93667786 52.05354309 49.73962402 C52.04401108 50.83085571 52.03447906 51.9220874 52.0246582 53.04638672 C52.02005081 54.00774536 52.01544342 54.969104 52.01069641 55.95959473 C51.75 58.38818359 51.75 58.38818359 49.75 61.38818359 C50.74 61.38818359 51.73 61.38818359 52.75 61.38818359 C53.08 61.05818359 53.41 60.72818359 53.75 60.38818359 C55.45772422 60.28414514 57.16973806 60.24965135 58.88061523 60.24291992 C59.97522568 60.23654007 61.06983612 60.23016022 62.19761658 60.22358704 C63.98505028 60.2219178 63.98505028 60.2219178 65.80859375 60.22021484 C67.02321793 60.21688644 68.2378421 60.21355804 69.48927307 60.21012878 C72.06421529 60.20505436 74.63916411 60.20272062 77.21411133 60.20288086 C81.16693897 60.20069496 85.11948745 60.18254598 89.07226562 60.16357422 C91.56770737 60.16064037 94.06315045 60.15865552 96.55859375 60.15771484 C97.74819199 60.15052933 98.93779022 60.14334381 100.16343689 60.13594055 C101.26119949 60.13901718 102.3589621 60.14209381 103.48999023 60.14526367 C104.4596019 60.14383865 105.42921356 60.14241364 106.4282074 60.14094543 C108.75 60.38818359 108.75 60.38818359 110.75 62.38818359 C111.00396729 64.74121094 111.00396729 64.74121094 111.00878906 67.72412109 C111.01509338 68.83867676 111.02139771 69.95323242 111.02789307 71.1015625 C111.0238446 72.30989746 111.01979614 73.51823242 111.015625 74.76318359 C111.01753845 75.99858887 111.0194519 77.23399414 111.02142334 78.50683594 C111.0231361 81.79409766 111.01506699 85.08117147 111.00390625 88.3684082 C111.00000397 90.38612889 111.00389171 92.4036756 111.01074219 94.42138672 C111.02306004 98.28540188 111.02160978 102.14915787 111.015625 106.01318359 C111.01967346 107.22151855 111.02372192 108.42985352 111.02789307 109.67480469 C111.01843658 111.34663818 111.01843658 111.34663818 111.00878906 113.05224609 C111.00719788 114.03660645 111.00560669 115.0209668 111.00396729 116.03515625 C110.75 118.38818359 110.75 118.38818359 108.75 120.38818359 C106.71349335 120.63986588 106.71349335 120.63986588 104.15710449 120.64215088 C103.18961777 120.64779053 102.22213104 120.65343018 101.22532654 120.65924072 C100.16032425 120.65519226 99.09532196 120.6511438 97.99804688 120.64697266 C96.87930679 120.65047729 95.76056671 120.65398193 94.60792542 120.65759277 C90.89480458 120.66642473 87.18187291 120.6605557 83.46875 120.65380859 C80.89807091 120.65515482 78.32739208 120.657095 75.75671387 120.65960693 C70.36301014 120.66256019 64.96937805 120.65844368 59.57568359 120.64892578 C53.33518002 120.63804091 47.09480711 120.64156639 40.8543067 120.65257859 C34.85712212 120.66273885 28.86000161 120.66167528 22.86280823 120.65581512 C20.30782554 120.65447712 17.75283954 120.65613159 15.19786072 120.66077423 C11.63246719 120.66583046 8.06732765 120.65814178 4.50195312 120.64697266 C3.43695084 120.65102112 2.37194855 120.65506958 1.27467346 120.65924072 C-0.17655663 120.65078125 -0.17655663 120.65078125 -1.65710449 120.64215088 C-2.92251698 120.6410198 -2.92251698 120.6410198 -4.21349335 120.63986588 C-6.25 120.38818359 -6.25 120.38818359 -8.25 118.38818359 C-8.49723816 116.08657837 -8.49723816 116.08657837 -8.49291992 113.17578125 C-8.49599655 112.08770172 -8.49907318 110.99962219 -8.50224304 109.87857056 C-8.49505753 108.69838348 -8.48787201 107.51819641 -8.48046875 106.30224609 C-8.48001053 105.09378021 -8.47955231 103.88531433 -8.4790802 102.64022827 C-8.47605428 100.07964092 -8.46815793 97.51905546 -8.45581055 94.95849609 C-8.43760847 91.03655476 -8.43530046 87.11485016 -8.43554688 83.19287109 C-8.43062968 80.70849405 -8.42480048 78.22411861 -8.41796875 75.73974609 C-8.41685593 74.56360748 -8.4157431 73.38746887 -8.41459656 72.1756897 C-8.40821671 71.08130585 -8.40183685 69.986922 -8.39526367 68.859375 C-8.39145187 67.89722076 -8.38764008 66.93506653 -8.38371277 65.9437561 C-8.25 63.38818359 -8.25 63.38818359 -7.67842102 61.10873413 C-7.53704208 60.54095245 -7.39566315 59.97317078 -7.25 59.38818359 C-7.58 59.05818359 -7.91 58.72818359 -8.25 58.38818359 C-8.35925945 56.6859252 -8.39907374 54.97915607 -8.41113281 53.2734375 C-8.42074036 52.18205475 -8.4303479 51.090672 -8.44024658 49.96621704 C-8.44449646 48.77773163 -8.44874634 47.58924622 -8.453125 46.36474609 C-8.45882507 45.15249359 -8.46452515 43.94024109 -8.47039795 42.69125366 C-8.47986539 40.12051267 -8.48638882 37.54975945 -8.49023438 34.97900391 C-8.49994121 31.03705769 -8.53094964 27.09563231 -8.5625 23.15380859 C-8.56902944 20.6616242 -8.57428014 18.16943607 -8.578125 15.67724609 C-8.5904718 14.49280914 -8.6028186 13.30837219 -8.61553955 12.08804321 C-8.61253845 10.99035614 -8.60953735 9.89266907 -8.60644531 8.76171875 C-8.61009094 7.7943277 -8.61373657 6.82693665 -8.61749268 5.83023071 C-8.25 3.38818359 -8.25 3.38818359 -7.05584717 1.57659912 C-4.60696738 -0.03499172 -2.92368439 0.00739533 0 0 Z " fill="#FBDB83" transform="translate(55.25,135.61181640625)"/>
<path d="M0 0 C0.71098469 -0.00467997 1.42196938 -0.00935994 2.15449905 -0.01418173 C4.54296634 -0.02617219 6.93086413 -0.01665905 9.31933594 -0.00723267 C11.02917822 -0.01129658 12.73901788 -0.01663745 14.44885254 -0.02316284 C19.09755363 -0.03686371 23.74605546 -0.0315264 28.39476013 -0.02202559 C33.2540644 -0.01444332 38.11335133 -0.0214706 42.97265625 -0.02618408 C51.1338203 -0.03164582 59.29490298 -0.02443906 67.45605469 -0.01016235 C76.89860684 0.00616496 86.34096468 0.00087675 95.78351212 -0.01564157 C103.88293245 -0.02924453 111.9822942 -0.03118193 120.08172226 -0.02332556 C124.92255591 -0.01864249 129.76329816 -0.01804156 134.60412598 -0.02793503 C139.15464905 -0.03658513 143.704921 -0.03061873 148.25541687 -0.01325226 C149.92798953 -0.00927692 151.60058323 -0.01043928 153.27314758 -0.01704025 C155.55152677 -0.02520481 157.82909477 -0.01499682 160.10742188 0 C161.38389587 0.00113108 162.66036987 0.00226215 163.9755249 0.00342751 C167.05371094 0.38095093 167.05371094 0.38095093 168.96359253 1.77170372 C170.41618055 3.91603336 170.44128083 5.36420481 170.45214844 7.94345093 C170.45601562 8.82259155 170.45988281 9.70173218 170.46386719 10.60751343 C170.44646484 11.98036499 170.44646484 11.98036499 170.42871094 13.38095093 C170.4403125 14.2961853 170.45191406 15.21141968 170.46386719 16.15438843 C170.46 17.03352905 170.45613281 17.91266968 170.45214844 18.81845093 C170.44876465 19.62153687 170.44538086 20.4246228 170.44189453 21.25204468 C169.93615568 24.0256565 169.33636538 24.72117695 167.05371094 26.38095093 C163.95711422 26.75847435 163.95711422 26.75847435 160.06272888 26.76190186 C159.34695508 26.76658183 158.63118127 26.7712618 157.89371735 26.77608359 C155.48909783 26.78807438 153.08504393 26.7785608 150.68041992 26.76913452 C148.95910305 26.77319839 147.23778879 26.77853922 145.51647949 26.7850647 C140.83685522 26.79876515 136.15742891 26.79342869 131.47780108 26.78392744 C126.58733244 26.77634618 121.69688104 26.78337206 116.80641174 26.78808594 C108.59397326 26.79354745 100.38161566 26.78634096 92.16918945 26.77206421 C82.66413377 26.75573151 73.15927106 26.76102911 63.65422004 26.77754343 C55.50301121 26.79114055 47.35186059 26.79308682 39.20064408 26.78522742 C34.32798444 26.78054182 29.45541563 26.77995042 24.58276176 26.78983688 C20.00351514 26.79847872 15.4245183 26.79253588 10.84529877 26.77515411 C9.16101815 26.77117456 7.47671664 26.77234827 5.79244423 26.77894211 C3.50057847 26.78709001 1.2095229 26.77691924 -1.08229065 26.76190186 C-3.00944585 26.76020524 -3.00944585 26.76020524 -4.97553349 26.75847435 C-5.95588283 26.63389162 -6.93623217 26.50930889 -7.94628906 26.38095093 C-10.79428723 22.10895368 -10.27647222 18.40296807 -10.25878906 13.38095093 C-10.27490234 12.46571655 -10.29101562 11.55048218 -10.30761719 10.60751343 C-10.30826172 9.7283728 -10.30890625 8.84923218 -10.30957031 7.94345093 C-10.31255127 7.14036499 -10.31553223 6.33727905 -10.31860352 5.50985718 C-9.31113426 -0.25088508 -5.05666723 0.00448069 0 0 Z " fill="#C3C2C3" transform="translate(47.9462890625,84.61904907226563)"/>
<path d="M0 0 C1.485 0.99 1.485 0.99 3 2 C1.77088206 5.68735381 0.67270616 6.15121372 -2.5390625 8.23046875 C-3.50054199 8.86049805 -4.46202148 9.49052734 -5.45263672 10.13964844 C-6.4995166 10.81543945 -7.54639648 11.49123047 -8.625 12.1875 C-10.82949628 13.63208685 -13.03278969 15.07834097 -15.234375 16.52734375 C-15.79796722 16.89735504 -16.36155945 17.26736633 -16.94223022 17.64859009 C-22.65925157 21.41169404 -28.27170088 25.31994455 -33.875 29.25 C-41.13160266 34.32736769 -48.42658825 39.32921755 -55.81103516 44.21850586 C-62.82435401 48.86701209 -69.78936621 53.58568345 -76.75 58.3125 C-78.39535594 59.42939002 -80.04075333 60.54623338 -81.6900177 61.65734386 C-82.79081744 62.41134397 -83.88051679 63.18184837 -84.95756531 63.96940327 C-88.66108939 66.62613626 -92.29335381 68.61834547 -96.48188782 70.42489624 C-103.07285533 73.56946556 -108.71174608 76.96150029 -113 83 C-116.78252811 94.42686783 -115.65912899 107.11581521 -115.2635982 118.98492074 C-115.12876563 123.73052792 -115.11972872 128.47645033 -115.09645081 133.22367859 C-115.03348709 142.19449184 -114.85771599 151.15935601 -114.64096075 160.12762564 C-114.40014796 170.33762723 -114.29215962 180.54776168 -114.1923455 190.75995505 C-114.0414186 205.79233037 -113.84104929 220.82385589 -113.51556206 235.85353851 C-113.48058422 237.47974881 -113.44713238 239.10599272 -113.41528702 240.73226738 C-113.37122259 242.94452403 -113.32084258 245.15653731 -113.26829529 247.36860657 C-113.24064307 248.6082935 -113.21299086 249.84798044 -113.18450069 251.12523365 C-113.19084414 253.94248629 -113.19084414 253.94248629 -112 256 C-114.12472576 256.05386629 -116.24983652 256.09273071 -118.375 256.125 C-119.55835937 256.14820313 -120.74171875 256.17140625 -121.9609375 256.1953125 C-125 256 -125 256 -127 254 C-127.26564884 251.10009384 -127.26564884 251.10009384 -127.28761292 247.30804443 C-127.29426073 246.61228153 -127.30090854 245.91651862 -127.30775779 245.19967198 C-127.32752036 242.85670867 -127.33283845 240.51393597 -127.33813477 238.17089844 C-127.34902489 236.49562577 -127.36069605 234.82035802 -127.37309265 233.14509583 C-127.40365601 228.58504981 -127.42063031 224.02505437 -127.43330884 219.46492672 C-127.44138502 216.6168611 -127.45156532 213.76881013 -127.46232414 210.92075348 C-127.49506056 202.01256567 -127.51895414 193.10441325 -127.531138 184.19617343 C-127.54539169 173.90801664 -127.58925404 163.62054598 -127.65863949 153.33261657 C-127.71039929 145.38434318 -127.7353096 137.43626501 -127.73996013 129.48782563 C-127.74336093 124.73884383 -127.75825908 119.99055518 -127.80124092 115.24175262 C-127.84097735 110.77305271 -127.84740435 106.30553014 -127.82834053 101.83670616 C-127.82707369 100.19760492 -127.83776258 98.55844373 -127.86135483 96.9195118 C-128.02950827 84.52959632 -128.02950827 84.52959632 -125.46633244 80.72134686 C-123.70577669 79.1829149 -122.06562714 78.07839475 -120 77 C-119.24823486 76.45061768 -118.49646973 75.90123535 -117.72192383 75.33520508 C-117.05700928 74.90103271 -116.39209473 74.46686035 -115.70703125 74.01953125 C-114.53708618 73.24863159 -114.53708618 73.24863159 -113.34350586 72.4621582 C-112.09065796 71.64557739 -112.09065796 71.64557739 -110.8125 70.8125 C-108.93414126 69.57406039 -107.05657885 68.33441236 -105.1796875 67.09375 C-104.1803418 66.43375 -103.18099609 65.77375 -102.15136719 65.09375 C-96.55258206 61.37394978 -90.99596599 57.59213371 -85.4375 53.8125 C-84.24522179 53.00232585 -83.05292019 52.19218613 -81.8605957 51.38208008 C-79.44442729 49.74025308 -77.02853487 48.0980209 -74.61279297 46.45556641 C-69.32347968 42.8598449 -64.03050281 39.26952316 -58.73773193 35.67889404 C-55.84978545 33.71968339 -52.96198348 31.76025978 -50.07421875 29.80078125 C-49.50060608 29.41156494 -48.92699341 29.02234863 -48.33599854 28.62133789 C-44.64465952 26.11647774 -40.95388699 23.61078479 -37.26345825 21.10458374 C-34.72402694 19.3800784 -32.18440798 17.65584953 -29.64477539 15.93164062 C-28.44383563 15.11618572 -27.242986 14.30059806 -26.04223633 13.48486328 C-23.33119061 11.64312236 -20.61882778 9.80342056 -17.90332031 7.96826172 C-16.03703015 6.70303877 -14.17647083 5.42929819 -12.32324219 4.14501953 C-11.52692383 3.5982959 -10.73060547 3.05157227 -9.91015625 2.48828125 C-8.8893396 1.77925659 -8.8893396 1.77925659 -7.84790039 1.0559082 C-5.11581704 -0.50523072 -3.05258898 -0.58144552 0 0 Z " fill="#E5573C" transform="translate(131,0)"/>
<path d="M0 0 C0.33 0 0.66 0 1 0 C1.33 4.29 1.66 8.58 2 13 C60.08 13 118.16 13 178 13 C178.33 8.71 178.66 4.42 179 0 C179.33 0 179.66 0 180 0 C180.08706892 3.27066566 180.14041241 6.54103365 180.1875 9.8125 C180.21263672 10.74126953 180.23777344 11.67003906 180.26367188 12.62695312 C180.27817383 13.9659668 180.27817383 13.9659668 180.29296875 15.33203125 C180.31653442 16.56530151 180.31653442 16.56530151 180.34057617 17.82348633 C180 20 180 20 178.91565037 21.61222267 C176.00706065 23.71932683 173.56929209 23.37781748 170.00901794 23.38095093 C169.29324414 23.3856309 168.57747033 23.39031087 167.84000641 23.39513266 C165.43538689 23.40712345 163.031333 23.39760988 160.62670898 23.38818359 C158.90539211 23.39224746 157.18407785 23.39758829 155.46276855 23.40411377 C150.78314428 23.41781423 146.10371797 23.41247776 141.42409015 23.40297651 C136.5336215 23.39539525 131.6431701 23.40242113 126.75270081 23.40713501 C118.54026233 23.41259653 110.32790472 23.40539003 102.11547852 23.39111328 C92.61042283 23.37478058 83.10556013 23.38007818 73.60050911 23.3965925 C65.44930027 23.41018962 57.29814965 23.41213589 49.14693314 23.40427649 C44.2742735 23.39959089 39.40170469 23.39899949 34.52905083 23.40888596 C29.9498042 23.41752779 25.37080736 23.41158495 20.79158783 23.39420319 C19.10730721 23.39022363 17.4230057 23.39139734 15.73873329 23.39799118 C13.44686753 23.40613908 11.15581196 23.39596831 8.86399841 23.38095093 C6.93684321 23.37925431 6.93684321 23.37925431 4.97075558 23.37752342 C3.99040624 23.25294069 3.0100569 23.12835796 2 23 C-0.13604308 19.79593538 -0.24208908 19.00399253 -0.1953125 15.33203125 C-0.18564453 13.99301758 -0.18564453 13.99301758 -0.17578125 12.62695312 C-0.15902344 11.69818359 -0.14226563 10.76941406 -0.125 9.8125 C-0.11597656 8.87212891 -0.10695312 7.93175781 -0.09765625 6.96289062 C-0.07409056 4.64167032 -0.04119116 2.32096356 0 0 Z " fill="#B0B0B4" transform="translate(38,88)"/>
<path d="M0 0 C2.97 0 5.94 0 9 0 C8.67 0.66 8.34 1.32 8 2 C7.9091762 3.78731924 7.88246201 5.57805489 7.88647461 7.36767578 C7.88655014 8.48868683 7.88662567 9.60969788 7.88670349 10.76467896 C7.89186478 11.97928802 7.89702606 13.19389709 7.90234375 14.4453125 C7.9037587 15.68546112 7.90517365 16.92560974 7.90663147 18.20333862 C7.91128904 21.50118133 7.92027561 24.79897546 7.93133545 28.09680176 C7.94156269 31.46166387 7.94613191 34.82653308 7.95117188 38.19140625 C7.96221731 44.79428993 7.97896753 51.39714099 8 58 C8.99 58.33 9.98 58.66 11 59 C10.51267899 59.38671875 10.02535797 59.7734375 9.52326965 60.171875 C7.48176029 62.62195617 7.62557441 64.08512051 7.62768555 67.25 C7.62145676 68.32121094 7.61522797 69.39242187 7.60881042 70.49609375 C7.61802017 71.65238281 7.62722992 72.80867188 7.63671875 74 C7.63622025 75.18722656 7.63572174 76.37445313 7.63520813 77.59765625 C7.63755009 80.10939201 7.64728568 82.62113006 7.66381836 85.1328125 C7.68740562 88.98458775 7.68438055 92.83567093 7.67773438 96.6875 C7.68331111 99.12500414 7.69042096 101.56250536 7.69921875 104 C7.69830734 105.15628906 7.69739594 106.31257813 7.69645691 107.50390625 C7.70598892 108.57511719 7.71552094 109.64632812 7.7253418 110.75 C7.72994919 111.69359375 7.73455658 112.6371875 7.73930359 113.609375 C7.84282079 116.26389833 7.84282079 116.26389833 10 119 C8.54207116 119.05399736 7.08357288 119.09279177 5.625 119.125 C4.81289063 119.14820313 4.00078125 119.17140625 3.1640625 119.1953125 C1 119 1 119 -1 117 C-1.24723816 114.69839478 -1.24723816 114.69839478 -1.24291992 111.78759766 C-1.24599655 110.69951813 -1.24907318 109.6114386 -1.25224304 108.49038696 C-1.24505753 107.31019989 -1.23787201 106.13001282 -1.23046875 104.9140625 C-1.23001053 103.70559662 -1.22955231 102.49713074 -1.2290802 101.25204468 C-1.22605428 98.69145732 -1.21815793 96.13087187 -1.20581055 93.5703125 C-1.18760847 89.64837117 -1.18530046 85.72666656 -1.18554688 81.8046875 C-1.18062968 79.32031046 -1.17480048 76.83593502 -1.16796875 74.3515625 C-1.16685593 73.17542389 -1.1657431 71.99928528 -1.16459656 70.7875061 C-1.15821671 69.69312225 -1.15183685 68.5987384 -1.14526367 67.47119141 C-1.14145187 66.50903717 -1.13764008 65.54688293 -1.13371277 64.55557251 C-1 62 -1 62 -0.42842102 59.72055054 C-0.28704208 59.15276886 -0.14566315 58.58498718 0 58 C-0.33 57.67 -0.66 57.34 -1 57 C-1.09881245 55.29210719 -1.12798966 53.58013307 -1.12939453 51.86938477 C-1.13412277 50.2274691 -1.13412277 50.2274691 -1.13894653 48.55238342 C-1.1369223 47.36076096 -1.13489807 46.16913849 -1.1328125 44.94140625 C-1.13376923 43.72678207 -1.13472595 42.5121579 -1.13571167 41.26072693 C-1.13639377 38.68578032 -1.13453741 36.110832 -1.13037109 33.53588867 C-1.12502789 29.58313142 -1.13031274 25.63048804 -1.13671875 21.67773438 C-1.13605788 19.18229141 -1.13477654 16.68684853 -1.1328125 14.19140625 C-1.13483673 13.00180801 -1.13686096 11.81220978 -1.13894653 10.58656311 C-1.13579437 9.48880051 -1.13264221 8.3910379 -1.12939453 7.26000977 C-1.12859894 6.2903981 -1.12780334 5.32078644 -1.12698364 4.3217926 C-1 2 -1 2 0 0 Z " fill="#FCCF42" transform="translate(48,137)"/>
<path d="M0 0 C1.21816406 0.03480469 1.21816406 0.03480469 2.4609375 0.0703125 C3.68683594 0.09738281 3.68683594 0.09738281 4.9375 0.125 C5.87722656 0.15980469 5.87722656 0.15980469 6.8359375 0.1953125 C5.8459375 1.6803125 5.8459375 1.6803125 4.8359375 3.1953125 C4.53906979 5.65941007 4.53906979 5.65941007 4.59301758 8.4453125 C4.58994095 9.51652344 4.58686432 10.58773437 4.58369446 11.69140625 C4.59087997 12.84769531 4.59806549 14.00398437 4.60546875 15.1953125 C4.60592697 16.38253906 4.60638519 17.56976563 4.6068573 18.79296875 C4.60988017 21.30469766 4.61776749 23.81642468 4.63012695 26.328125 C4.64836384 30.17975483 4.65063677 34.03114404 4.65039062 37.8828125 C4.65530656 40.32031459 4.66113521 42.75781504 4.66796875 45.1953125 C4.66908157 46.35160156 4.6701944 47.50789063 4.67134094 48.69921875 C4.67772079 49.77042969 4.68410065 50.84164062 4.69067383 51.9453125 C4.69448563 52.88890625 4.69829742 53.8325 4.70222473 54.8046875 C4.73917639 57.3429545 4.73917639 57.3429545 5.8359375 60.1953125 C-0.21875 60.390625 -0.21875 60.390625 -2.1640625 60.1953125 C-4.7721148 57.5872602 -4.41698036 56.4914931 -4.42285156 52.859375 C-4.42915588 51.74481934 -4.43546021 50.63026367 -4.44195557 49.48193359 C-4.4379071 48.27359863 -4.43385864 47.06526367 -4.4296875 45.8203125 C-4.43160095 44.58490723 -4.4335144 43.34950195 -4.43548584 42.07666016 C-4.4371986 38.78939843 -4.42912949 35.50232463 -4.41796875 32.21508789 C-4.41406647 30.1973672 -4.41795421 28.17982049 -4.42480469 26.16210938 C-4.43712254 22.29809422 -4.43567228 18.43433822 -4.4296875 14.5703125 C-4.43373596 13.36197754 -4.43778442 12.15364258 -4.44195557 10.90869141 C-4.43565125 9.79413574 -4.42934692 8.67958008 -4.42285156 7.53125 C-4.42126038 6.54688965 -4.41966919 5.5625293 -4.41802979 4.54833984 C-4.07603146 1.37969783 -3.22539788 0.29110089 0 0 Z " fill="#FCCF42" transform="translate(111.1640625,195.8046875)"/>
<path d="M0 0 C5.61 0 11.22 0 17 0 C17.05373546 3.95851252 17.0935461 7.91630255 17.125 11.875 C17.14175781 13.00292969 17.15851563 14.13085938 17.17578125 15.29296875 C17.18222656 16.36933594 17.18867188 17.44570312 17.1953125 18.5546875 C17.20578613 19.54968262 17.21625977 20.54467773 17.22705078 21.56982422 C17 24 17 24 15 26 C12.03125 26.30078125 12.03125 26.30078125 8.5 26.3125 C6.75203125 26.33763672 6.75203125 26.33763672 4.96875 26.36328125 C3.9890625 26.24339844 3.009375 26.12351563 2 26 C-0.23413013 22.64880481 -0.23847762 21.5822245 -0.1953125 17.67578125 C-0.18886719 16.64775391 -0.18242188 15.61972656 -0.17578125 14.56054688 C-0.15064453 12.95276367 -0.15064453 12.95276367 -0.125 11.3125 C-0.11597656 10.22904297 -0.10695313 9.14558594 -0.09765625 8.02929688 C-0.07407452 5.35277052 -0.03820336 2.67635759 0 0 Z " fill="#F1C128" transform="translate(128,196)"/>
<path d="M0 0 C5.61 0 11.22 0 17 0 C17.05373546 3.95851252 17.0935461 7.91630255 17.125 11.875 C17.14175781 13.00292969 17.15851563 14.13085938 17.17578125 15.29296875 C17.18222656 16.36933594 17.18867187 17.44570312 17.1953125 18.5546875 C17.20578613 19.54968262 17.21625977 20.54467773 17.22705078 21.56982422 C17 24 17 24 15 26 C12.28515625 26.30078125 12.28515625 26.30078125 9.0625 26.3125 C8.00160156 26.32925781 6.94070312 26.34601563 5.84765625 26.36328125 C3 26 3 26 1.34033203 24.81005859 C-0.48752644 22.3416173 -0.34352281 20.72587622 -0.29296875 17.67578125 C-0.2784668 16.13374023 -0.2784668 16.13374023 -0.26367188 14.56054688 C-0.23853516 13.48869141 -0.21339844 12.41683594 -0.1875 11.3125 C-0.16719727 9.68731445 -0.16719727 9.68731445 -0.14648438 8.02929688 C-0.11111023 5.35265296 -0.05730304 2.67626425 0 0 Z " fill="#F2C129" transform="translate(68,196)"/>
<path d="M0 0 C5.61 0 11.22 0 17 0 C17.05374281 3.79185383 17.09354937 7.58295298 17.125 11.375 C17.14175781 12.45523438 17.15851563 13.53546875 17.17578125 14.6484375 C17.18222656 15.6796875 17.18867187 16.7109375 17.1953125 17.7734375 C17.20578613 18.72653809 17.21625977 19.67963867 17.22705078 20.66162109 C17 23 17 23 15 25 C12.03125 25.30078125 12.03125 25.30078125 8.5 25.3125 C6.75203125 25.33763672 6.75203125 25.33763672 4.96875 25.36328125 C3.9890625 25.24339844 3.009375 25.12351563 2 25 C-0.20192224 21.69711664 -0.23959968 20.72537273 -0.1953125 16.89453125 C-0.18886719 15.91162109 -0.18242188 14.92871094 -0.17578125 13.91601562 C-0.15902344 12.89185547 -0.14226562 11.86769531 -0.125 10.8125 C-0.11597656 9.77673828 -0.10695313 8.74097656 -0.09765625 7.67382812 C-0.07407983 5.11578694 -0.03820876 2.55786447 0 0 Z " fill="#F2C128" transform="translate(68,137)"/>
<path d="M0 0 C1.2219104 0.00607269 1.2219104 0.00607269 2.46850586 0.01226807 C3.30438232 0.01035461 4.14025879 0.00844116 5.00146484 0.00646973 C6.77010397 0.00510771 8.53875309 0.0088053 10.30737305 0.01715088 C13.02016579 0.02785031 15.7322963 0.01725631 18.44506836 0.00445557 C20.16121566 0.00577716 21.87736255 0.00833955 23.59350586 0.01226807 C24.40811279 0.0082196 25.22271973 0.00417114 26.06201172 0 C31.80108658 0.04797379 31.80108658 0.04797379 34.03100586 2.27789307 C34.34350586 4.77789307 34.34350586 4.77789307 34.03100586 7.27789307 C30.27643109 9.78094291 27.31535487 9.56659563 22.96850586 9.54351807 C21.78695923 9.54638824 21.78695923 9.54638824 20.58154297 9.54931641 C18.91723308 9.55067654 17.25291252 9.54699206 15.58862305 9.53863525 C13.04052917 9.52793307 10.4931403 9.53853608 7.94506836 9.55133057 C6.3278793 9.55000894 4.71069068 9.54744648 3.09350586 9.54351807 C2.33094482 9.54756653 1.56838379 9.55161499 0.78271484 9.55578613 C-3.00398089 9.52220244 -4.7404768 9.43023796 -7.96899414 7.27789307 C-8.28149414 4.77789307 -8.28149414 4.77789307 -7.96899414 2.27789307 C-5.36593522 -0.32516585 -3.54620875 0.02964329 0 0 Z " fill="#E5573D" transform="translate(114.968994140625,63.72210693359375)"/>
<path d="M0 0 C4.29 0 8.58 0 13 0 C13 8.25 13 16.5 13 25 C8.05 25.495 8.05 25.495 3 26 C2.01 26.33 1.02 26.66 0 27 C0 18.09 0 9.18 0 0 Z " fill="#606268" transform="translate(47,111)"/>
<path d="M0 0 C1.2219104 0.00607269 1.2219104 0.00607269 2.46850586 0.01226807 C3.30438232 0.01035461 4.14025879 0.00844116 5.00146484 0.00646973 C6.77010397 0.00510771 8.53875309 0.0088053 10.30737305 0.01715088 C13.02016579 0.02785031 15.7322963 0.01725631 18.44506836 0.00445557 C20.16121566 0.00577716 21.87736255 0.00833955 23.59350586 0.01226807 C24.40811279 0.0082196 25.22271973 0.00417114 26.06201172 0 C31.80108658 0.04797379 31.80108658 0.04797379 34.03100586 2.27789307 C34.21850586 4.84039307 34.21850586 4.84039307 34.03100586 7.27789307 C32.13477384 9.17412509 29.36730226 8.40686932 26.84472656 8.4168396 C25.54474731 8.41380325 25.54474731 8.41380325 24.21850586 8.41070557 C22.8924231 8.41214066 22.8924231 8.41214066 21.53955078 8.41360474 C19.66658456 8.41428658 17.793616 8.412432 15.9206543 8.40826416 C13.04332198 8.40291596 10.16614578 8.408209 7.28881836 8.41461182 C5.47371385 8.41395104 3.65860943 8.41266987 1.84350586 8.41070557 C0.97685303 8.4127298 0.1102002 8.41475403 -0.78271484 8.4168396 C-6.85404405 8.39284316 -6.85404405 8.39284316 -7.96899414 7.27789307 C-8.15649414 4.84039307 -8.15649414 4.84039307 -7.96899414 2.27789307 C-5.36593522 -0.32516585 -3.54620875 0.02964329 0 0 Z " fill="#E5563C" transform="translate(114.968994140625,46.72210693359375)"/>
<path d="M0 0 C1.2219104 0.00607269 1.2219104 0.00607269 2.46850586 0.01226807 C3.30438232 0.01035461 4.14025879 0.00844116 5.00146484 0.00646973 C6.77010397 0.00510771 8.53875309 0.0088053 10.30737305 0.01715088 C13.02016579 0.02785031 15.7322963 0.01725631 18.44506836 0.00445557 C20.16121566 0.00577716 21.87736255 0.00833955 23.59350586 0.01226807 C24.40811279 0.0082196 25.22271973 0.00417114 26.06201172 0 C31.80108658 0.04797379 31.80108658 0.04797379 34.03100586 2.27789307 C34.21850586 4.84039307 34.21850586 4.84039307 34.03100586 7.27789307 C32.13477384 9.17412509 29.36730226 8.40686932 26.84472656 8.4168396 C25.54474731 8.41380325 25.54474731 8.41380325 24.21850586 8.41070557 C22.8924231 8.41214066 22.8924231 8.41214066 21.53955078 8.41360474 C19.66658456 8.41428658 17.793616 8.412432 15.9206543 8.40826416 C13.04332198 8.40291596 10.16614578 8.408209 7.28881836 8.41461182 C5.47371385 8.41395104 3.65860943 8.41266987 1.84350586 8.41070557 C0.97685303 8.4127298 0.1102002 8.41475403 -0.78271484 8.4168396 C-6.85404405 8.39284316 -6.85404405 8.39284316 -7.96899414 7.27789307 C-8.15649414 4.84039307 -8.15649414 4.84039307 -7.96899414 2.27789307 C-5.36593522 -0.32516585 -3.54620875 0.02964329 0 0 Z " fill="#E5563C" transform="translate(114.968994140625,29.72210693359375)"/>
<path d="M0 0 C0.98033203 -0.01224609 1.96066406 -0.02449219 2.97070312 -0.03710938 C3.90720703 -0.03904297 4.84371094 -0.04097656 5.80859375 -0.04296875 C6.67154053 -0.04707764 7.5344873 -0.05118652 8.42358398 -0.05541992 C10.5625 0.1875 10.5625 0.1875 12.5625 2.1875 C12.8125 4.6875 12.8125 4.6875 12.5625 7.1875 C9.68654444 10.06345556 7.35701445 9.47816223 3.42382812 9.50976562 C2.50021484 9.50654297 1.57660156 9.50332031 0.625 9.5 C-0.75461914 9.52416992 -0.75461914 9.52416992 -2.16210938 9.54882812 C-3.48758789 9.54979492 -3.48758789 9.54979492 -4.83984375 9.55078125 C-5.64929443 9.55376221 -6.45874512 9.55674316 -7.29272461 9.55981445 C-9.94636616 9.09916524 -10.86320597 8.34617403 -12.4375 6.1875 C-11.67340754 -1.83547079 -6.80135476 0.00445406 0 0 Z " fill="#7C7B7B" transform="translate(76.4375,178.8125)"/>
<path d="M0 0 C0.93199219 -0.00257813 1.86398438 -0.00515625 2.82421875 -0.0078125 C3.80003906 -0.00007812 4.77585938 0.00765625 5.78125 0.015625 C6.75707031 0.00789062 7.73289063 0.00015625 8.73828125 -0.0078125 C9.67027344 -0.00523437 10.60226563 -0.00265625 11.5625 0 C12.41908203 0.00225586 13.27566406 0.00451172 14.15820312 0.00683594 C16.28125 0.265625 16.28125 0.265625 18.28125 2.265625 C18.46875 4.828125 18.46875 4.828125 18.28125 7.265625 C16.59608046 8.95079454 14.49357212 8.39570519 12.1875 8.3984375 C11.15753906 8.39972656 10.12757813 8.40101563 9.06640625 8.40234375 C7.44025391 8.39654297 7.44025391 8.39654297 5.78125 8.390625 C4.69714844 8.39449219 3.61304688 8.39835938 2.49609375 8.40234375 C1.46613281 8.40105469 0.43617188 8.39976562 -0.625 8.3984375 C-1.57697266 8.39730957 -2.52894531 8.39618164 -3.50976562 8.39501953 C-5.71875 8.265625 -5.71875 8.265625 -6.71875 7.265625 C-6.90625 4.828125 -6.90625 4.828125 -6.71875 2.265625 C-4.22817749 -0.22494751 -3.43402341 0.0090437 0 0 Z " fill="#75767B" transform="translate(130.71875,238.734375)"/>
<path d="M0 0 C1.40282227 -0.00193359 1.40282227 -0.00193359 2.83398438 -0.00390625 C4.3102832 0.00189453 4.3102832 0.00189453 5.81640625 0.0078125 C6.79673828 0.00394531 7.77707031 0.00007812 8.78710938 -0.00390625 C9.72361328 -0.00261719 10.66011719 -0.00132812 11.625 0 C12.91942017 0.00169189 12.91942017 0.00169189 14.23999023 0.00341797 C16.37890625 0.1328125 16.37890625 0.1328125 18.37890625 1.1328125 C18.42144981 3.13235996 18.41971408 5.13322886 18.37890625 7.1328125 C15.96074459 9.55097416 9.69112806 8.31828269 6.44140625 8.3203125 C5.41337891 8.33255859 4.38535156 8.34480469 3.32617188 8.35742188 C1.85374023 8.36032227 1.85374023 8.36032227 0.3515625 8.36328125 C-1.00569946 8.36944458 -1.00569946 8.36944458 -2.39038086 8.37573242 C-4.62109375 8.1328125 -4.62109375 8.1328125 -6.62109375 6.1328125 C-5.95836465 0.69843386 -5.33628155 0.00698401 0 0 Z " fill="#75767B" transform="translate(70.62109375,238.8671875)"/>
<path d="M0 0 C0.33 0 0.66 0 1 0 C2.16411051 21.52675629 2.07138247 43.04233623 1.96289062 64.59399414 C1.95866089 65.78335571 1.95443115 66.97271729 1.95007324 68.19812012 C1.9418509 70.46213772 1.92941101 72.72614495 1.91223145 74.9901123 C1.90896851 76.00150269 1.90570557 77.01289307 1.90234375 78.05493164 C1.89710693 78.94088516 1.89187012 79.82683868 1.88647461 80.73963928 C1.90715566 83.16853791 1.90715566 83.16853791 3 86 C2.505 86.99 2.505 86.99 2 88 C1.88097188 89.69463258 1.82285313 91.39371122 1.79467773 93.09228516 C1.77473251 94.15323395 1.75478729 95.21418274 1.73423767 96.30728149 C1.71752518 97.45626923 1.70081268 98.60525696 1.68359375 99.7890625 C1.66281265 100.96262299 1.64203156 102.13618347 1.62062073 103.3453064 C1.55508017 107.10514304 1.49621924 110.86505122 1.4375 114.625 C1.39431908 117.16927832 1.35070493 119.71354933 1.30664062 122.2578125 C1.19939418 128.50513207 1.0976362 134.75252326 1 141 C0.67 141 0.34 141 0 141 C0 94.47 0 47.94 0 0 Z " fill="#DD8057" transform="translate(46,111)"/>
</svg>
